  0
SECTION
  2
HEADER
  9
$ACADVER
  1
AC1032
  9
$ACADMAINTVER
 90
4
  9
$DWGCODEPAGE
  3
ANSI_1252
  9
$LASTSAVEDBY
  1
ezdxf
  9
$REQUIREDVERSIONS
160
0
  9
$INSBASE
 10
0.0
 20
0.0
 30
0.0
  9
$EXTMIN
 10
1e+20
 20
1e+20
 30
1e+20
  9
$EXTMAX
 10
-1e+20
 20
-1e+20
 30
-1e+20
  9
$LIMMIN
 10
0.0
 20
0.0
  9
$LIMMAX
 10
420.0
 20
297.0
  9
$ORTHOMODE
 70
0
  9
$REGENMODE
 70
1
  9
$FILLMODE
 70
1
  9
$QTEXTMODE
 70
0
  9
$MIRRTEXT
 70
0
  9
$LTSCALE
 40
1.0
  9
$ATTMODE
 70
1
  9
$TEXTSIZE
 40
2.5
  9
$TRACEWID
 40
1.0
  9
$TEXTSTYLE
  7
IRAM
  9
$CLAYER
  8
AN-NOPLOT
  9
$CELTYPE
  6
ByLayer
  9
$CECOLOR
 62
256
  9
$CELTSCALE
 40
1.0
  9
$DISPSILH
 70
0
  9
$DIMSCALE
 40
1.0
  9
$DIMASZ
 40
2.5
  9
$DIMEXO
 40
0.625
  9
$DIMDLI
 40
3.75
  9
$DIMRND
 40
0.0
  9
$DIMDLE
 40
0.0
  9
$DIMEXE
 40
1.25
  9
$DIMTP
 40
0.0
  9
$DIMTM
 40
0.0
  9
$DIMTXT
 40
2.5
  9
$DIMCEN
 40
2.5
  9
$DIMTSZ
 40
0.0
  9
$DIMTOL
 70
0
  9
$DIMLIM
 70
0
  9
$DIMTIH
 70
0
  9
$DIMTOH
 70
0
  9
$DIMSE1
 70
0
  9
$DIMSE2
 70
0
  9
$DIMTAD
 70
1
  9
$DIMZIN
 70
8
  9
$DIMBLK
  1

  9
$DIMASO
 70
1
  9
$DIMSHO
 70
1
  9
$DIMPOST
  1

  9
$DIMAPOST
  1

  9
$DIMALT
 70
0
  9
$DIMALTD
 70
3
  9
$DIMALTF
 40
0.03937007874
  9
$DIMLFAC
 40
1.0
  9
$DIMTOFL
 70
1
  9
$DIMTVP
 40
0.0
  9
$DIMTIX
 70
0
  9
$DIMSOXD
 70
0
  9
$DIMSAH
 70
0
  9
$DIMBLK1
  1

  9
$DIMBLK2
  1

  9
$DIMSTYLE
  2
IRAM-OBRA
  9
$DIMCLRD
 70
0
  9
$DIMCLRE
 70
0
  9
$DIMCLRT
 70
0
  9
$DIMTFAC
 40
1.0
  9
$DIMGAP
 40
0.625
  9
$DIMJUST
 70
0
  9
$DIMSD1
 70
0
  9
$DIMSD2
 70
0
  9
$DIMTOLJ
 70
0
  9
$DIMTZIN
 70
8
  9
$DIMALTZ
 70
0
  9
$DIMALTTZ
 70
0
  9
$DIMUPT
 70
0
  9
$DIMDEC
 70
2
  9
$DIMTDEC
 70
2
  9
$DIMALTU
 70
2
  9
$DIMALTTD
 70
3
  9
$DIMTXSTY
  7
Standard
  9
$DIMAUNIT
 70
0
  9
$DIMADEC
 70
0
  9
$DIMALTRND
 40
0.0
  9
$DIMAZIN
 70
0
  9
$DIMDSEP
 70
44
  9
$DIMATFIT
 70
3
  9
$DIMFRAC
 70
0
  9
$DIMLDRBLK
  1

  9
$DIMLUNIT
 70
2
  9
$DIMLWD
 70
-2
  9
$DIMLWE
 70
-2
  9
$DIMTMOVE
 70
0
  9
$DIMFXL
 40
1.0
  9
$DIMFXLON
 70
0
  9
$DIMJOGANG
 40
0.785398163397
  9
$DIMTFILL
 70
0
  9
$DIMTFILLCLR
 70
0
  9
$DIMARCSYM
 70
0
  9
$DIMLTYPE
  6

  9
$DIMLTEX1
  6

  9
$DIMLTEX2
  6

  9
$DIMTXTDIRECTION
 70
0
  9
$LUNITS
 70
2
  9
$LUPREC
 70
0
  9
$SKETCHINC
 40
1.0
  9
$FILLETRAD
 40
10.0
  9
$AUNITS
 70
0
  9
$AUPREC
 70
1
  9
$MENU
  1
.
  9
$ELEVATION
 40
0.0
  9
$PELEVATION
 40
0.0
  9
$THICKNESS
 40
0.0
  9
$LIMCHECK
 70
0
  9
$CHAMFERA
 40
0.0
  9
$CHAMFERB
 40
0.0
  9
$CHAMFERC
 40
0.0
  9
$CHAMFERD
 40
0.0
  9
$SKPOLY
 70
0
  9
$TDCREATE
 40
2461318.2772685187
  9
$TDUCREATE
 40
2458532.153996898
  9
$TDUPDATE
 40
2461318.2772685187
  9
$TDUUPDATE
 40
2458532.1544311
  9
$TDINDWG
 40
0.0
  9
$TDUSRTIMER
 40
0.0
  9
$USRTIMER
 70
1
  9
$ANGBASE
 50
0.0
  9
$ANGDIR
 70
0
  9
$PDMODE
 70
0
  9
$PDSIZE
 40
0.0
  9
$PLINEWID
 40
0.0
  9
$SPLFRAME
 70
0
  9
$SPLINETYPE
 70
6
  9
$SPLINESEGS
 70
8
  9
$HANDSEED
  5
189
  9
$SURFTAB1
 70
6
  9
$SURFTAB2
 70
6
  9
$SURFTYPE
 70
6
  9
$SURFU
 70
6
  9
$SURFV
 70
6
  9
$UCSBASE
  2

  9
$UCSNAME
  2

  9
$UCSORG
 10
0.0
 20
0.0
 30
0.0
  9
$UCSXDIR
 10
1.0
 20
0.0
 30
0.0
  9
$UCSYDIR
 10
0.0
 20
1.0
 30
0.0
  9
$UCSORTHOREF
  2

  9
$UCSORTHOVIEW
 70
0
  9
$UCSORGTOP
 10
0.0
 20
0.0
 30
0.0
  9
$UCSORGBOTTOM
 10
0.0
 20
0.0
 30
0.0
  9
$UCSORGLEFT
 10
0.0
 20
0.0
 30
0.0
  9
$UCSORGRIGHT
 10
0.0
 20
0.0
 30
0.0
  9
$UCSORGFRONT
 10
0.0
 20
0.0
 30
0.0
  9
$UCSORGBACK
 10
0.0
 20
0.0
 30
0.0
  9
$PUCSBASE
  2

  9
$PUCSNAME
  2

  9
$PUCSORG
 10
0.0
 20
0.0
 30
0.0
  9
$PUCSXDIR
 10
1.0
 20
0.0
 30
0.0
  9
$PUCSYDIR
 10
0.0
 20
1.0
 30
0.0
  9
$PUCSORTHOREF
  2

  9
$PUCSORTHOVIEW
 70
0
  9
$PUCSORGTOP
 10
0.0
 20
0.0
 30
0.0
  9
$PUCSORGBOTTOM
 10
0.0
 20
0.0
 30
0.0
  9
$PUCSORGLEFT
 10
0.0
 20
0.0
 30
0.0
  9
$PUCSORGRIGHT
 10
0.0
 20
0.0
 30
0.0
  9
$PUCSORGFRONT
 10
0.0
 20
0.0
 30
0.0
  9
$PUCSORGBACK
 10
0.0
 20
0.0
 30
0.0
  9
$USERI1
 70
0
  9
$USERI2
 70
0
  9
$USERI3
 70
0
  9
$USERI4
 70
0
  9
$USERI5
 70
0
  9
$USERR1
 40
0.0
  9
$USERR2
 40
0.0
  9
$USERR3
 40
0.0
  9
$USERR4
 40
0.0
  9
$USERR5
 40
0.0
  9
$WORLDVIEW
 70
1
  9
$SHADEDGE
 70
3
  9
$SHADEDIF
 70
70
  9
$TILEMODE
 70
1
  9
$MAXACTVP
 70
64
  9
$PINSBASE
 10
0.0
 20
0.0
 30
0.0
  9
$PLIMCHECK
 70
0
  9
$PEXTMIN
 10
1e+20
 20
1e+20
 30
1e+20
  9
$PEXTMAX
 10
-1e+20
 20
-1e+20
 30
-1e+20
  9
$PLIMMIN
 10
-0.0
 20
-0.0
  9
$PLIMMAX
 10
420.0
 20
297.0
  9
$UNITMODE
 70
0
  9
$VISRETAIN
 70
1
  9
$PLINEGEN
 70
1
  9
$PSLTSCALE
 70
1
  9
$TREEDEPTH
 70
3020
  9
$CMLSTYLE
  2
Standard
  9
$CMLJUST
 70
0
  9
$CMLSCALE
 40
20.0
  9
$PROXYGRAPHICS
 70
1
  9
$MEASUREMENT
 70
1
  9
$CELWEIGHT
370
-1
  9
$ENDCAPS
280
0
  9
$JOINSTYLE
280
0
  9
$LWDISPLAY
290
1
  9
$INSUNITS
 70
4
  9
$HYPERLINKBASE
  1

  9
$STYLESHEET
  1

  9
$XEDIT
290
1
  9
$CEPSNTYPE
380
0
  9
$PSTYLEMODE
290
1
  9
$FINGERPRINTGUID
  2
{ADAC77C4-B832-4C70-B907-E906EC0AC0F3}
  9
$VERSIONGUID
  2
{B8931BE7-C9B8-43F1-BCDA-C3B403592300}
  9
$EXTNAMES
290
1
  9
$PSVPSCALE
 40
0.0
  9
$OLESTARTUP
290
0
  9
$SORTENTS
280
127
  9
$INDEXCTL
280
0
  9
$HIDETEXT
280
1
  9
$XCLIPFRAME
280
1
  9
$HALOGAP
280
0
  9
$OBSCOLOR
 70
257
  9
$OBSLTYPE
280
0
  9
$INTERSECTIONDISPLAY
280
0
  9
$INTERSECTIONCOLOR
 70
257
  9
$DIMASSOC
280
2
  9
$PROJECTNAME
  1

  9
$CAMERADISPLAY
290
0
  9
$LENSLENGTH
 40
50.0
  9
$CAMERAHEIGHT
 40
0.0
  9
$STEPSPERSEC
 40
24.0
  9
$STEPSIZE
 40
100.0
  9
$3DDWFPREC
 40
2.0
  9
$PSOLWIDTH
 40
0.005
  9
$PSOLHEIGHT
 40
0.08
  9
$LOFTANG1
 40
1.570796326795
  9
$LOFTANG2
 40
1.570796326795
  9
$LOFTMAG1
 40
0.0
  9
$LOFTMAG2
 40
0.0
  9
$LOFTPARAM
 70
7
  9
$LOFTNORMALS
280
1
  9
$LATITUDE
 40
37.795
  9
$LONGITUDE
 40
-122.394
  9
$NORTHDIRECTION
 40
0.0
  9
$TIMEZONE
 70
-8000
  9
$LIGHTGLYPHDISPLAY
280
1
  9
$TILEMODELIGHTSYNCH
280
1
  9
$CMATERIAL
347
20
  9
$SOLIDHIST
280
0
  9
$SHOWHIST
280
1
  9
$DWFFRAME
280
2
  9
$DGNFRAME
280
2
  9
$REALWORLDSCALE
290
1
  9
$INTERFERECOLOR
 62
256
  9
$CSHADOW
280
0
  9
$SHADOWPLANELOCATION
 40
0.0
  0
ENDSEC
  0
SECTION
  2
CLASSES
  0
CLASS
  1
ACDBDICTIONARYWDFLT
  2
AcDbDictionaryWithDefault
  3
ObjectDBX Classes
 90
0
 91
0
280
0
281
0
  0
CLASS
  1
SUN
  2
AcDbSun
  3
SCENEOE
 90
1153
 91
0
280
0
281
0
  0
CLASS
  1
VISUALSTYLE
  2
AcDbVisualStyle
  3
ObjectDBX Classes
 90
4095
 91
0
280
0
281
0
  0
CLASS
  1
MATERIAL
  2
AcDbMaterial
  3
ObjectDBX Classes
 90
1153
 91
0
280
0
281
0
  0
CLASS
  1
SCALE
  2
AcDbScale
  3
ObjectDBX Classes
 90
1153
 91
0
280
0
281
0
  0
CLASS
  1
TABLESTYLE
  2
AcDbTableStyle
  3
ObjectDBX Classes
 90
4095
 91
0
280
0
281
0
  0
CLASS
  1
MLEADERSTYLE
  2
AcDbMLeaderStyle
  3
ACDB_MLEADERSTYLE_CLASS
 90
4095
 91
0
280
0
281
0
  0
CLASS
  1
DICTIONARYVAR
  2
AcDbDictionaryVar
  3
ObjectDBX Classes
 90
0
 91
0
280
0
281
0
  0
CLASS
  1
CELLSTYLEMAP
  2
AcDbCellStyleMap
  3
ObjectDBX Classes
 90
1152
 91
0
280
0
281
0
  0
CLASS
  1
MENTALRAYRENDERSETTINGS
  2
AcDbMentalRayRenderSettings
  3
SCENEOE
 90
1024
 91
0
280
0
281
0
  0
CLASS
  1
ACDBDETAILVIEWSTYLE
  2
AcDbDetailViewStyle
  3
ObjectDBX Classes
 90
1025
 91
0
280
0
281
0
  0
CLASS
  1
ACDBSECTIONVIEWSTYLE
  2
AcDbSectionViewStyle
  3
ObjectDBX Classes
 90
1025
 91
0
280
0
281
0
  0
CLASS
  1
RASTERVARIABLES
  2
AcDbRasterVariables
  3
ISM
 90
0
 91
0
280
0
281
0
  0
CLASS
  1
LAYOUT
  2
AcDbLayout
  3
ObjectDBX Classes
 90
0
 91
0
280
0
281
0
  0
CLASS
  1
ACDBPLACEHOLDER
  2
AcDbPlaceHolder
  3
ObjectDBX Classes
 90
0
 91
0
280
0
281
0
  0
ENDSEC
  0
SECTION
  2
TABLES
  0
TABLE
  2
VPORT
  5
8
330
0
100
AcDbSymbolTable
 70
1
  0
VPORT
  5
23
330
8
100
AcDbSymbolTableRecord
100
AcDbViewportTableRecord
  2
*Active
 70
0
 10
0.0
 20
0.0
 11
1.0
 21
1.0
 12
0.0
 22
0.0
 13
0.0
 23
0.0
 14
0.5
 24
0.5
 15
0.5
 25
0.5
 16
0.0
 26
0.0
 36
1.0
 17
0.0
 27
0.0
 37
0.0
 40
1000.0
 41
1.34
 42
50.0
 43
0.0
 44
0.0
 50
0.0
 51
0.0
 71
0
 72
1000
 73
1
 74
3
 75
0
 76
0
 77
0
 78
0
281
0
 65
0
146
0.0
  0
ENDTAB
  0
TABLE
  2
LTYPE
  5
2
330
0
100
AcDbSymbolTable
 70
5
  0
LTYPE
  5
24
330
2
100
AcDbSymbolTableRecord
100
AcDbLinetypeTableRecord
  2
ByBlock
 70
0
  3

 72
65
 73
0
 40
0.0
  0
LTYPE
  5
25
330
2
100
AcDbSymbolTableRecord
100
AcDbLinetypeTableRecord
  2
ByLayer
 70
0
  3

 72
65
 73
0
 40
0.0
  0
LTYPE
  5
26
330
2
100
AcDbSymbolTableRecord
100
AcDbLinetypeTableRecord
  2
Continuous
 70
0
  3

 72
65
 73
0
 40
0.0
  0
LTYPE
  5
30
330
2
100
AcDbSymbolTableRecord
100
AcDbLinetypeTableRecord
  2
ACAD_ISO02W100
 70
0
  3
ISO dash __ __ __ __ __ __ __ __ __ __ __ __ __
 72
65
 73
2
 40
15.0
 49
12.0
 74
0
 49
-3.0
 74
0
  0
LTYPE
  5
31
330
2
100
AcDbSymbolTableRecord
100
AcDbLinetypeTableRecord
  2
ACAD_ISO04W100
 70
0
  3
ISO long-dash dot ____ . ____ . ____ . ____ . _
 72
65
 73
4
 40
30.0
 49
24.0
 74
0
 49
-3.0
 74
0
 49
0.0
 74
0
 49
-3.0
 74
0
  0
ENDTAB
  0
TABLE
  2
LAYER
  5
1
330
0
100
AcDbSymbolTable
 70
45
  0
LAYER
  5
27
330
1
100
AcDbSymbolTableRecord
100
AcDbLayerTableRecord
  2
0
 70
0
 62
7
  6
Continuous
370
-3
390
13
347
21
1001
AcAecLayerStandard
1000

1000
Solo dentro de bloques
  0
LAYER
  5
28
330
1
100
AcDbSymbolTableRecord
100
AcDbLayerTableRecord
  2
Defpoints
 70
0
 62
7
  6
Continuous
290
0
370
-3
390
13
347
21
  0
LAYER
  5
32
330
1
100
AcDbSymbolTableRecord
100
AcDbLayerTableRecord
  2
G-MARCO
 70
0
 62
7
  6
Continuous
370
70
390
13
347
21
1001
AcAecLayerStandard
1000

1000
Recuadro y marcas de centrado
  0
LAYER
  5
34
330
1
100
AcDbSymbolTableRecord
100
AcDbLayerTableRecord
  2
G-ROTULO
 70
0
 62
7
  6
Continuous
370
35
390
13
347
21
1001
AcAecLayerStandard
1000

1000
Rótulo, lista de materiales, tabla de revisiones
  0
LAYER
  5
35
330
1
100
AcDbSymbolTableRecord
100
AcDbLayerTableRecord
  2
G-VENTANAS
 70
0
 62
8
  6
Continuous
290
0
370
13
390
13
347
21
1001
AcAecLayerStandard
1000

1000
Viewports
  0
LAYER
  5
36
330
1
100
AcDbSymbolTableRecord
100
AcDbLayerTableRecord
  2
G-EJES
 70
0
 62
1
  6
ACAD_ISO04W100
370
18
390
13
347
21
1001
AcAecLayerStandard
1000

1000
Ejes de líneas, columnas, tabiques y piezas
  0
LAYER
  5
37
330
1
100
AcDbSymbolTableRecord
100
AcDbLayerTableRecord
  2
EX-HORMIGON-CORTE
 70
0
 62
8
  6
Continuous
370
35
390
13
347
21
1001
AcAecLayerStandard
1000

1000
H° existente cortado
  0
LAYER
  5
38
330
1
100
AcDbSymbolTableRecord
100
AcDbLayerTableRecord
  2
EX-HORMIGON-VISTA
 70
0
 62
8
  6
Continuous
370
25
390
13
347
21
1001
AcAecLayerStandard
1000

1000
H° existente en vista
  0
LAYER
  5
39
330
1
100
AcDbSymbolTableRecord
100
AcDbLayerTableRecord
  2
EX-MADERA
 70
0
 62
32
  6
Continuous
370
25
390
13
347
21
1001
AcAecLayerStandard
1000

1000
Machimbre, cabios, correas y viga de madera
  0
LAYER
  5
3A
330
1
100
AcDbSymbolTableRecord
100
AcDbLayerTableRecord
  2
EX-CERRAMIENTO
 70
0
 62
8
  6
Continuous
370
25
390
13
347
21
1001
AcAecLayerStandard
1000

1000
Chapa de muros y cubierta
  0
LAYER
  5
3B
330
1
100
AcDbSymbolTableRecord
100
AcDbLayerTableRecord
  2
EX-COLUMNAS
 70
0
 62
8
  6
Continuous
370
35
390
13
347
21
1001
AcAecLayerStandard
1000

1000
Columnas existentes
  0
LAYER
  5
3C
330
1
100
AcDbSymbolTableRecord
100
AcDbLayerTableRecord
  2
EX-TERRENO
 70
0
 62
8
  6
Continuous
370
18
390
13
347
21
1001
AcAecLayerStandard
1000

1000
Terreno natural y relleno
  0
LAYER
  5
3D
330
1
100
AcDbSymbolTableRecord
100
AcDbLayerTableRecord
  2
NU-REDLER-CONDUCTO
 70
0
 62
5
  6
Continuous
370
50
390
13
347
21
1001
AcAecLayerStandard
1000

1000
Conducto, bridas, tapa y divisor
  0
LAYER
  5
3E
330
1
100
AcDbSymbolTableRecord
100
AcDbLayerTableRecord
  2
NU-REDLER-MECANICO
 70
0
 62
4
  6
Continuous
370
35
390
13
347
21
1001
AcAecLayerStandard
1000

1000
Cabezal, cola, ruedas, ejes, cadena, paletas y motorreductor
  0
LAYER
  5
3F
330
1
100
AcDbSymbolTableRecord
100
AcDbLayerTableRecord
  2
NU-COMPUERTAS
 70
0
 62
150
  6
Continuous
370
35
390
13
347
21
1001
AcAecLayerStandard
1000

1000
Placa guillotina, guías, pantalón, brazos y actuador
  0
LAYER
  5
40
330
1
100
AcDbSymbolTableRecord
100
AcDbLayerTableRecord
  2
NU-ESTRUCT-CORTE
 70
0
 62
1
  6
Continuous
370
50
390
13
347
21
1001
AcAecLayerStandard
1000

1000
Perfiles y chapas nuevas cortadas
  0
LAYER
  5
41
330
1
100
AcDbSymbolTableRecord
100
AcDbLayerTableRecord
  2
NU-ESTRUCT-VISTA
 70
0
 62
1
  6
Continuous
370
35
390
13
347
21
1001
AcAecLayerStandard
1000

1000
Perfiles y chapas nuevas en vista
  0
LAYER
  5
42
330
1
100
AcDbSymbolTableRecord
100
AcDbLayerTableRecord
  2
NU-APOYOS
 70
0
 62
1
  6
Continuous
370
35
390
13
347
21
1001
AcAecLayerStandard
1000

1000
Placas, asientos, PTFE, cartelas y dados
  0
LAYER
  5
43
330
1
100
AcDbSymbolTableRecord
100
AcDbLayerTableRecord
  2
NU-PASARELA
 70
0
 62
2
  6
Continuous
370
35
390
13
347
21
1001
AcAecLayerStandard
1000

1000
Ménsulas, rejilla, larguero y rodapié
  0
LAYER
  5
44
330
1
100
AcDbSymbolTableRecord
100
AcDbLayerTableRecord
  2
NU-BARANDA
 70
0
 62
2
  6
Continuous
370
25
390
13
347
21
1001
AcAecLayerStandard
1000

1000
Montantes, pasamanos y travesaños
  0
LAYER
  5
45
330
1
100
AcDbSymbolTableRecord
100
AcDbLayerTableRecord
  2
NU-ESCALERA
 70
0
 62
2
  6
Continuous
370
35
390
13
347
21
1001
AcAecLayerStandard
1000

1000
Escalera exterior y marinera
  0
LAYER
  5
46
330
1
100
AcDbSymbolTableRecord
100
AcDbLayerTableRecord
  2
NU-PLATAFORMA
 70
0
 62
2
  6
Continuous
370
35
390
13
347
21
1001
AcAecLayerStandard
1000

1000
Plataforma exterior, postes y vigas
  0
LAYER
  5
47
330
1
100
AcDbSymbolTableRecord
100
AcDbLayerTableRecord
  2
NU-ELEVADOR
 70
0
 62
1
  6
Continuous
370
50
390
13
347
21
1001
AcAecLayerStandard
1000

1000
Bota, cuerpo, cabeza, desviador y chutes
  0
LAYER
  5
48
330
1
100
AcDbSymbolTableRecord
100
AcDbLayerTableRecord
  2
NU-RECEPCION
 70
0
 62
6
  6
Continuous
370
50
390
13
347
21
1001
AcAecLayerStandard
1000

1000
Fosa, tolva, reja, banda, tapa y sumidero
  0
LAYER
  5
49
330
1
100
AcDbSymbolTableRecord
100
AcDbLayerTableRecord
  2
NU-ELECTRICO
 70
0
 62
3
  6
Continuous
370
25
390
13
347
21
1001
AcAecLayerStandard
1000

1000
Bandejas portacables y sensores
  0
LAYER
  5
4A
330
1
100
AcDbSymbolTableRecord
100
AcDbLayerTableRecord
  2
NU-BULONES-SOLD
 70
0
 62
1
  6
Continuous
370
18
390
13
347
21
1001
AcAecLayerStandard
1000

1000
Bulones, anclajes y símbolos de soldadura
  0
LAYER
  5
4B
330
1
100
AcDbSymbolTableRecord
100
AcDbLayerTableRecord
  2
AN-OCULTO
 70
0
 62
8
  6
ACAD_ISO02W100
370
25
390
13
347
21
1001
AcAecLayerStandard
1000

1000
Aristas ocultas
  0
LAYER
  5
4C
330
1
100
AcDbSymbolTableRecord
100
AcDbLayerTableRecord
  2
AN-RAYADO-EX
 70
0
 62
9
  6
Continuous
370
13
390
13
347
21
1001
AcAecLayerStandard
1000

1000
Rayados de elementos existentes
  0
LAYER
  5
4D
330
1
100
AcDbSymbolTableRecord
100
AcDbLayerTableRecord
  2
AN-RAYADO-NU
 70
0
 62
1
  6
Continuous
370
13
390
13
347
21
1001
AcAecLayerStandard
1000

1000
Rayados de elementos nuevos
  0
LAYER
  5
4E
330
1
100
AcDbSymbolTableRecord
100
AcDbLayerTableRecord
  2
AN-COTAS
 70
0
 62
3
  6
Continuous
370
18
390
13
347
21
1001
AcAecLayerStandard
1000

1000
Cotas
  0
LAYER
  5
4F
330
1
100
AcDbSymbolTableRecord
100
AcDbLayerTableRecord
  2
AN-NIVELES
 70
0
 62
3
  6
Continuous
370
18
390
13
347
21
1001
AcAecLayerStandard
1000

1000
Símbolos de nivel
  0
LAYER
  5
50
330
1
100
AcDbSymbolTableRecord
100
AcDbLayerTableRecord
  2
AN-REFERENCIAS
 70
0
 62
3
  6
Continuous
370
18
390
13
347
21
1001
AcAecLayerStandard
1000

1000
Multileaders y globos
  0
LAYER
  5
51
330
1
100
AcDbSymbolTableRecord
100
AcDbLayerTableRecord
  2
AN-TEXTOS
 70
0
 62
7
  6
Continuous
370
25
390
13
347
21
1001
AcAecLayerStandard
1000

1000
Títulos de vista y notas técnicas
  0
LAYER
  5
52
330
1
100
AcDbSymbolTableRecord
100
AcDbLayerTableRecord
  2
AN-CORTES-LLAMADAS
 70
0
 62
1
  6
ACAD_ISO04W100
370
18
390
13
347
21
1001
AcAecLayerStandard
1000

1000
Líneas de corte y llamadas de detalle (extremos 0,70)
  0
LAYER
  5
53
330
1
100
AcDbSymbolTableRecord
100
AcDbLayerTableRecord
  2
AN-TABLAS
 70
0
 62
7
  6
Continuous
370
25
390
13
347
21
1001
AcAecLayerStandard
1000

1000
Tablas y listas
  0
LAYER
  5
54
330
1
100
AcDbSymbolTableRecord
100
AcDbLayerTableRecord
  2
AN-FLUJO
 70
0
 62
1
  6
Continuous
370
35
390
13
347
21
1001
AcAecLayerStandard
1000

1000
Flechas y numeración del recorrido del producto
  0
LAYER
  5
55
330
1
100
AcDbSymbolTableRecord
100
AcDbLayerTableRecord
  2
AN-IMAGENES
 70
0
 62
7
  6
Continuous
370
-3
390
13
347
21
1001
AcAecLayerStandard
1000

1000
Fotos del relevamiento
  0
LAYER
  5
56
330
1
100
AcDbSymbolTableRecord
100
AcDbLayerTableRecord
  2
AN-NOPLOT
 70
0
 62
8
  6
Continuous
290
0
370
-3
390
13
347
21
1001
AcAecLayerStandard
1000

1000
Auxiliares, zonas y verificación
  0
LAYER
  5
57
330
1
100
AcDbSymbolTableRecord
100
AcDbLayerTableRecord
  2
3D-GALPON
 70
0
 62
8
  6
Continuous
370
25
390
13
347
21
1001
AcAecLayerStandard
1000

1000
Sólidos ISO-13: galpón existente
  0
LAYER
  5
58
330
1
100
AcDbSymbolTableRecord
100
AcDbLayerTableRecord
  2
3D-REDLER
 70
0
 62
5
  6
Continuous
370
25
390
13
347
21
1001
AcAecLayerStandard
1000

1000
Sólidos ISO-13: conductos, cabezales y colas
  0
LAYER
  5
59
330
1
100
AcDbSymbolTableRecord
100
AcDbLayerTableRecord
  2
3D-COMPUERTAS
 70
0
 62
150
  6
Continuous
370
25
390
13
347
21
1001
AcAecLayerStandard
1000

1000
Sólidos ISO-13: compuertas y pantalones
  0
LAYER
  5
5A
330
1
100
AcDbSymbolTableRecord
100
AcDbLayerTableRecord
  2
3D-ESTRUCT
 70
0
 62
1
  6
Continuous
370
25
390
13
347
21
1001
AcAecLayerStandard
1000

1000
Sólidos ISO-13: viga carrilera y apoyos
  0
LAYER
  5
5B
330
1
100
AcDbSymbolTableRecord
100
AcDbLayerTableRecord
  2
3D-PASARELA
 70
0
 62
2
  6
Continuous
370
25
390
13
347
21
1001
AcAecLayerStandard
1000

1000
Sólidos ISO-13: pasarelas, plataforma y escalera
  0
LAYER
  5
5C
330
1
100
AcDbSymbolTableRecord
100
AcDbLayerTableRecord
  2
3D-ELEVADOR
 70
0
 62
1
  6
Continuous
370
25
390
13
347
21
1001
AcAecLayerStandard
1000

1000
Sólidos ISO-13: elevador, desviador y chutes
  0
LAYER
  5
5D
330
1
100
AcDbSymbolTableRecord
100
AcDbLayerTableRecord
  2
3D-RECEPCION
 70
0
 62
6
  6
Continuous
370
25
390
13
347
21
1001
AcAecLayerStandard
1000

1000
Sólidos ISO-13: fosa y tolva
  0
ENDTAB
  0
TABLE
  2
STYLE
  5
5
330
0
100
AcDbSymbolTable
 70
4
  0
STYLE
  5
29
330
5
100
AcDbSymbolTableRecord
100
AcDbTextStyleTableRecord
  2
Standard
 70
0
 40
0.0
 41
1.0
 50
0.0
 71
0
 42
2.5
  3
txt
  4

  0
STYLE
  5
5E
330
5
100
AcDbSymbolTableRecord
100
AcDbTextStyleTableRecord
  2
IRAM
 70
0
 40
0.0
 41
1.0
 50
0.0
 71
0
 42
2.5
  3
isocpeur.ttf
  4

1001
ACAD
1000
ISOCPEUR
1071
34
1001
AcadAnnotative
1000
AnnotativeData
1002
{
1070
1
1070
1
1002
}
  0
STYLE
  5
5F
330
5
100
AcDbSymbolTableRecord
100
AcDbTextStyleTableRecord
  2
IRAM-N
 70
0
 40
0.0
 41
1.0
 50
0.0
 71
0
 42
2.5
  3
isocpeur.ttf
  4

1001
ACAD
1000
ISOCPEUR
1071
34
  0
STYLE
  5
60
330
5
100
AcDbSymbolTableRecord
100
AcDbTextStyleTableRecord
  2
IRAM-NEGRITA
 70
0
 40
0.0
 41
1.0
 50
0.0
 71
0
 42
2.5
  3
isocpeur.ttf
  4

1001
ACAD
1000
ISOCPEUR
1071
33554466
  0
ENDTAB
  0
TABLE
  2
VIEW
  5
7
330
0
100
AcDbSymbolTable
 70
0
  0
ENDTAB
  0
TABLE
  2
UCS
  5
6
330
0
100
AcDbSymbolTable
 70
13
  0
UCS
  5
127
330
6
100
AcDbSymbolTableRecord
100
AcDbUCSTableRecord
  2
UCS-P
 70
0
 10
0.0
 20
0.0
 30
0.0
 11
1.0
 21
0.0
 31
0.0
 12
0.0
 22
1.0
 32
0.0
  0
UCS
  5
12C
330
6
100
AcDbSymbolTableRecord
100
AcDbUCSTableRecord
  2
UCS-A
 70
0
 10
0.0
 20
60000.0
 30
0.0
 11
1.0
 21
0.0
 31
0.0
 12
0.0
 22
1.0
 32
0.0
  0
UCS
  5
131
330
6
100
AcDbSymbolTableRecord
100
AcDbUCSTableRecord
  2
UCS-B
 70
0
 10
110000.0
 20
60000.0
 30
0.0
 11
-1.0
 21
0.0
 31
0.0
 12
0.0
 22
1.0
 32
0.0
  0
UCS
  5
136
330
6
100
AcDbSymbolTableRecord
100
AcDbUCSTableRecord
  2
UCS-C
 70
0
 10
120000.0
 20
60000.0
 30
0.0
 11
1.0
 21
0.0
 31
0.0
 12
0.0
 22
1.0
 32
0.0
  0
UCS
  5
13B
330
6
100
AcDbSymbolTableRecord
100
AcDbUCSTableRecord
  2
UCS-R
 70
0
 10
120000.0
 20
0.0
 30
0.0
 11
1.0
 21
0.0
 31
0.0
 12
0.0
 22
1.0
 32
0.0
  0
UCS
  5
140
330
6
100
AcDbSymbolTableRecord
100
AcDbUCSTableRecord
  2
UCS-DET04
 70
0
 10
0.0
 20
120000.0
 30
0.0
 11
1.0
 21
0.0
 31
0.0
 12
0.0
 22
1.0
 32
0.0
  0
UCS
  5
145
330
6
100
AcDbSymbolTableRecord
100
AcDbUCSTableRecord
  2
UCS-DET05
 70
0
 10
0.0
 20
150000.0
 30
0.0
 11
1.0
 21
0.0
 31
0.0
 12
0.0
 22
1.0
 32
0.0
  0
UCS
  5
14A
330
6
100
AcDbSymbolTableRecord
100
AcDbUCSTableRecord
  2
UCS-DET06
 70
0
 10
0.0
 20
180000.0
 30
0.0
 11
1.0
 21
0.0
 31
0.0
 12
0.0
 22
1.0
 32
0.0
  0
UCS
  5
14F
330
6
100
AcDbSymbolTableRecord
100
AcDbUCSTableRecord
  2
UCS-DET07
 70
0
 10
0.0
 20
210000.0
 30
0.0
 11
1.0
 21
0.0
 31
0.0
 12
0.0
 22
1.0
 32
0.0
  0
UCS
  5
154
330
6
100
AcDbSymbolTableRecord
100
AcDbUCSTableRecord
  2
UCS-DET08
 70
0
 10
0.0
 20
240000.0
 30
0.0
 11
1.0
 21
0.0
 31
0.0
 12
0.0
 22
1.0
 32
0.0
  0
UCS
  5
159
330
6
100
AcDbSymbolTableRecord
100
AcDbUCSTableRecord
  2
UCS-DET09
 70
0
 10
0.0
 20
270000.0
 30
0.0
 11
1.0
 21
0.0
 31
0.0
 12
0.0
 22
1.0
 32
0.0
  0
UCS
  5
15E
330
6
100
AcDbSymbolTableRecord
100
AcDbUCSTableRecord
  2
UCS-DET10
 70
0
 10
0.0
 20
300000.0
 30
0.0
 11
1.0
 21
0.0
 31
0.0
 12
0.0
 22
1.0
 32
0.0
  0
UCS
  5
163
330
6
100
AcDbSymbolTableRecord
100
AcDbUCSTableRecord
  2
UCS-DET12
 70
0
 10
0.0
 20
360000.0
 30
0.0
 11
1.0
 21
0.0
 31
0.0
 12
0.0
 22
1.0
 32
0.0
  0
ENDTAB
  0
TABLE
  2
APPID
  5
3
330
0
100
AcDbSymbolTable
 70
5
  0
APPID
  5
2A
330
3
100
AcDbSymbolTableRecord
100
AcDbRegAppTableRecord
  2
ACAD
 70
0
  0
APPID
  5
2F
330
3
100
AcDbSymbolTableRecord
100
AcDbRegAppTableRecord
  2
AcadAnnotative
 70
0
  0
APPID
  5
33
330
3
100
AcDbSymbolTableRecord
100
AcDbRegAppTableRecord
  2
AcAecLayerStandard
 70
0
  0
APPID
  5
186
330
3
100
AcDbSymbolTableRecord
100
AcDbRegAppTableRecord
  2
HATCHBACKGROUNDCOLOR
 70
0
  0
APPID
  5
187
330
3
100
AcDbSymbolTableRecord
100
AcDbRegAppTableRecord
  2
EZDXF
 70
0
  0
ENDTAB
  0
TABLE
  2
DIMSTYLE
  5
4
330
0
100
AcDbSymbolTable
 70
4
100
AcDbDimStyleTable
  0
DIMSTYLE
105
2B
330
4
100
AcDbSymbolTableRecord
100
AcDbDimStyleTableRecord
  2
Standard
 70
0
 40
1.0
 41
2.5
 42
0.625
 43
3.75
 44
1.25
 45
0.0
 46
0.0
 47
0.0
 48
0.0
 49
2.5
140
2.5
141
2.5
142
0.0
143
0.03937007874
144
1.0
145
0.0
146
1.0
147
0.625
148
0.0
 69
0
 70
0
 71
0
 72
0
 73
0
 74
0
 75
0
 76
0
 77
1
 78
8
 79
3
170
0
171
3
172
1
173
0
174
0
175
0
176
0
177
0
178
0
179
2
271
2
272
2
273
2
274
3
275
0
276
0
277
2
278
44
279
0
280
0
281
0
282
0
283
0
284
8
285
0
286
0
288
0
289
3
290
0
371
-2
372
-2
  0
DIMSTYLE
105
6A
330
4
100
AcDbSymbolTableRecord
100
AcDbDimStyleTableRecord
  2
IRAM-OBRA
 70
0
 40
1.0
 41
2.0
 42
1.5
 43
7.0
 44
2.0
 45
0.0
 46
0.0
 47
0.0
 48
0.0
 49
2.5
140
2.5
141
0.0
142
0.0
143
0.03937007874
144
0.001
145
0.0
146
1.0
147
1.0
148
0.0
 69
0
 70
0
 71
0
 72
0
 73
0
 74
0
 75
0
 76
0
 77
1
 78
0
 79
0
170
0
171
3
172
1
173
0
174
0
175
0
176
256
177
256
178
256
179
0
271
2
272
2
273
2
274
3
275
0
276
0
277
2
278
44
279
1
280
0
281
0
282
0
283
0
284
8
285
0
286
0
288
0
289
3
290
0
340
5E
342
61
371
-1
372
-1
1001
AcadAnnotative
1000
AnnotativeData
1002
{
1070
1
1070
1
1002
}
  0
DIMSTYLE
105
6F
330
4
100
AcDbSymbolTableRecord
100
AcDbDimStyleTableRecord
  2
IRAM-OBRA-3
 70
0
 40
1.0
 41
2.0
 42
1.5
 43
7.0
 44
2.0
 45
0.0
 46
0.0
 47
0.0
 48
0.0
 49
2.5
140
2.5
141
0.0
142
0.0
143
0.03937007874
144
0.001
145
0.0
146
1.0
147
1.0
148
0.0
 69
0
 70
0
 71
0
 72
0
 73
0
 74
0
 75
0
 76
0
 77
1
 78
0
 79
0
170
0
171
3
172
1
173
0
174
0
175
0
176
256
177
256
178
256
179
0
271
3
272
2
273
2
274
3
275
0
276
0
277
2
278
44
279
1
280
0
281
0
282
0
283
0
284
8
285
0
286
0
288
0
289
3
290
0
340
5E
342
61
371
-1
372
-1
1001
AcadAnnotative
1000
AnnotativeData
1002
{
1070
1
1070
1
1002
}
  0
DIMSTYLE
105
70
330
4
100
AcDbSymbolTableRecord
100
AcDbDimStyleTableRecord
  2
IRAM-MEC
 70
0
 40
1.0
 41
2.5
 42
1.5
 43
7.0
 44
2.0
 45
0.0
 46
0.0
 47
0.0
 48
0.0
 49
2.5
140
2.5
141
0.0
142
0.0
143
0.03937007874
144
1.0
145
0.0
146
1.0
147
1.0
148
0.0
 69
0
 70
0
 71
0
 72
0
 73
0
 74
0
 75
0
 76
0
 77
1
 78
0
 79
0
170
0
171
3
172
1
173
0
174
0
175
0
176
256
177
256
178
256
179
0
271
0
272
2
273
2
274
3
275
0
276
0
277
2
278
44
279
1
280
0
281
0
282
0
283
0
284
8
285
0
286
0
288
0
289
3
290
0
340
5E
371
-1
372
-1
1001
AcadAnnotative
1000
AnnotativeData
1002
{
1070
1
1070
1
1002
}
  0
ENDTAB
  0
TABLE
  2
BLOCK_RECORD
  5
9
330
0
100
AcDbSymbolTable
 70
19
  0
BLOCK_RECORD
  5
17
330
9
100
AcDbSymbolTableRecord
100
AcDbBlockTableRecord
  2
*Model_Space
340
1A
 70
0
280
1
281
0
  0
BLOCK_RECORD
  5
1B
330
9
100
AcDbSymbolTableRecord
100
AcDbBlockTableRecord
  2
*Paper_Space
340
1E
 70
0
280
1
281
0
  0
BLOCK_RECORD
  5
61
330
9
100
AcDbSymbolTableRecord
100
AcDbBlockTableRecord
  2
_OBLIQUE
340
0
 70
0
280
1
281
0
  0
BLOCK_RECORD
  5
65
330
9
100
AcDbSymbolTableRecord
100
AcDbBlockTableRecord
  2
_DOT
340
0
 70
0
280
1
281
0
  0
BLOCK_RECORD
  5
6B
330
9
100
AcDbSymbolTableRecord
100
AcDbBlockTableRecord
  2
_CLOSEDFILLED
340
0
 70
0
280
1
281
0
  0
BLOCK_RECORD
  5
71
330
9
100
AcDbSymbolTableRecord
100
AcDbBlockTableRecord
  2
GLOBO
340
0
 70
0
280
1
281
0
  0
BLOCK_RECORD
  5
76
330
9
100
AcDbSymbolTableRecord
100
AcDbBlockTableRecord
  2
NIVEL-CORTE
340
0
 70
0
280
1
281
0
1001
AcadAnnotative
1000
AnnotativeData
1002
{
1070
1
1070
1
1002
}
  0
BLOCK_RECORD
  5
7D
330
9
100
AcDbSymbolTableRecord
100
AcDbBlockTableRecord
  2
NIVEL-CORTE-IZQ
340
0
 70
0
280
1
281
0
1001
AcadAnnotative
1000
AnnotativeData
1002
{
1070
1
1070
1
1002
}
  0
BLOCK_RECORD
  5
84
330
9
100
AcDbSymbolTableRecord
100
AcDbBlockTableRecord
  2
NIVEL-PLANTA
340
0
 70
0
280
1
281
0
1001
AcadAnnotative
1000
AnnotativeData
1002
{
1070
1
1070
1
1002
}
  0
BLOCK_RECORD
  5
8D
330
9
100
AcDbSymbolTableRecord
100
AcDbBlockTableRecord
  2
CORTE
340
0
 70
0
280
1
281
0
1001
AcadAnnotative
1000
AnnotativeData
1002
{
1070
1
1070
1
1002
}
  0
BLOCK_RECORD
  5
95
330
9
100
AcDbSymbolTableRecord
100
AcDbBlockTableRecord
  2
LLAMADA-DETALLE
340
0
 70
0
280
1
281
0
1001
AcadAnnotative
1000
AnnotativeData
1002
{
1070
1
1070
1
1002
}
  0
BLOCK_RECORD
  5
9C
330
9
100
AcDbSymbolTableRecord
100
AcDbBlockTableRecord
  2
TITULO-VISTA
340
0
 70
0
280
1
281
0
1001
AcadAnnotative
1000
AnnotativeData
1002
{
1070
1
1070
1
1002
}
  0
BLOCK_RECORD
  5
A3
330
9
100
AcDbSymbolTableRecord
100
AcDbBlockTableRecord
  2
NORTE
340
0
 70
0
280
1
281
0
1001
AcadAnnotative
1000
AnnotativeData
1002
{
1070
1
1070
1
1002
}
  0
BLOCK_RECORD
  5
AA
330
9
100
AcDbSymbolTableRecord
100
AcDbBlockTableRecord
  2
EJE
340
0
 70
0
280
1
281
0
1001
AcadAnnotative
1000
AnnotativeData
1002
{
1070
1
1070
1
1002
}
  0
BLOCK_RECORD
  5
AF
330
9
100
AcDbSymbolTableRecord
100
AcDbBlockTableRecord
  2
FLUJO
340
0
 70
0
280
1
281
0
1001
AcadAnnotative
1000
AnnotativeData
1002
{
1070
1
1070
1
1002
}
  0
BLOCK_RECORD
  5
B4
330
9
100
AcDbSymbolTableRecord
100
AcDbBlockTableRecord
  2
PASO-RECORRIDO
340
0
 70
0
280
1
281
0
1001
AcadAnnotative
1000
AnnotativeData
1002
{
1070
1
1070
1
1002
}
  0
BLOCK_RECORD
  5
BB
330
9
100
AcDbSymbolTableRecord
100
AcDbBlockTableRecord
  2
ROTULO-A3
340
0
 70
0
280
1
281
0
  0
BLOCK_RECORD
  5
102
330
9
100
AcDbSymbolTableRecord
100
AcDbBlockTableRecord
  2
LISTA-MATERIALES
340
0
 70
0
280
1
281
0
  0
BLOCK_RECORD
  5
116
330
9
100
AcDbSymbolTableRecord
100
AcDbBlockTableRecord
  2
LM-FILA
340
0
 70
0
280
1
281
0
  0
ENDTAB
  0
ENDSEC
  0
SECTION
  2
BLOCKS
  0
BLOCK
  5
18
330
17
100
AcDbEntity
  8
0
100
AcDbBlockBegin
  2
*Model_Space
 70
0
 10
0.0
 20
0.0
 30
0.0
  3
*Model_Space
  1

  0
ENDBLK
  5
19
330
17
100
AcDbEntity
  8
0
100
AcDbBlockEnd
  0
BLOCK
  5
1C
330
1B
100
AcDbEntity
  8
0
100
AcDbBlockBegin
  2
*Paper_Space
 70
0
 10
0.0
 20
0.0
 30
0.0
  3
*Paper_Space
  1

  0
ENDBLK
  5
1D
330
1B
100
AcDbEntity
  8
0
100
AcDbBlockEnd
  0
BLOCK
  5
62
330
61
100
AcDbEntity
  8
0
100
AcDbBlockBegin
  2
_OBLIQUE
 70
0
 10
0.0
 20
0.0
 30
0.0
  3
_OBLIQUE
  1

  0
LINE
  5
64
330
61
100
AcDbEntity
  8
0
  6
BYBLOCK
 62
0
100
AcDbLine
 10
-0.5
 20
-0.5
 30
0.0
 11
0.5
 21
0.5
 31
0.0
  0
ENDBLK
  5
63
330
61
100
AcDbEntity
  8
0
100
AcDbBlockEnd
  0
BLOCK
  5
66
330
65
100
AcDbEntity
  8
0
100
AcDbBlockBegin
  2
_DOT
 70
0
 10
0.0
 20
0.0
 30
0.0
  3
_DOT
  1

  0
LINE
  5
68
330
65
100
AcDbEntity
  8
0
  6
BYBLOCK
 62
0
100
AcDbLine
 10
-0.5
 20
0.0
 30
0.0
 11
-1.0
 21
0.0
 31
0.0
  0
LWPOLYLINE
  5
69
330
65
100
AcDbEntity
  8
0
  6
BYBLOCK
 62
0
100
AcDbPolyline
 90
2
 70
1
 43
0.5
 10
-0.25
 20
0.0
 42
1.0
 10
0.25
 20
0.0
 42
1.0
  0
ENDBLK
  5
67
330
65
100
AcDbEntity
  8
0
100
AcDbBlockEnd
  0
BLOCK
  5
6C
330
6B
100
AcDbEntity
  8
0
100
AcDbBlockBegin
  2
_CLOSEDFILLED
 70
0
 10
0.0
 20
0.0
 30
0.0
  3
_CLOSEDFILLED
  1

  0
SOLID
  5
6E
330
6B
100
AcDbEntity
  8
0
  6
BYBLOCK
 62
0
100
AcDbTrace
 10
-1.0
 20
0.16439898372402537
 30
0.0
 11
0.0
 21
0.0
 31
0.0
 12
-1.0
 22
-0.16439898372402537
 32
0.0
 13
-1.0
 23
-0.16439898372402537
 33
0.0
  0
ENDBLK
  5
6D
330
6B
100
AcDbEntity
  8
0
100
AcDbBlockEnd
  0
BLOCK
  5
72
330
71
100
AcDbEntity
  8
0
100
AcDbBlockBegin
  2
GLOBO
 70
2
 10
0.0
 20
0.0
 30
0.0
  3
GLOBO
  1

  0
CIRCLE
  5
74
330
71
100
AcDbEntity
  8
0
 62
0
100
AcDbCircle
 10
0.0
 20
0.0
 30
0.0
 40
3.0
  0
ATTDEF
  5
75
330
71
100
AcDbEntity
  8
0
 62
0
100
AcDbText
 10
0.0
 20
0.0
 30
0.0
 40
2.5
  1
1
  7
IRAM-N
 72
1
 11
0.0
 21
0.0
 31
0.0
100
AcDbAttributeDefinition
  3
Número de globo
  2
N
 70
0
 74
2
 71
1
 72
0
 11
0.0
 21
0.0
 31
0.0
  0
ENDBLK
  5
73
330
71
100
AcDbEntity
  8
0
100
AcDbBlockEnd
  0
BLOCK
  5
77
330
76
100
AcDbEntity
  8
0
100
AcDbBlockBegin
  2
NIVEL-CORTE
 70
2
 10
0.0
 20
0.0
 30
0.0
  3
NIVEL-CORTE
  1

  0
LWPOLYLINE
  5
79
330
76
100
AcDbEntity
  8
0
 62
0
100
AcDbPolyline
 90
3
 70
1
 10
0.0
 20
0.0
 10
-1.5
 20
2.598076211353316
 10
1.5
 20
2.598076211353316
  0
LINE
  5
7A
330
76
100
AcDbEntity
  8
0
 62
0
100
AcDbLine
 10
-1.5
 20
2.598076211353316
 30
0.0
 11
13.5
 21
2.598076211353316
 31
0.0
  0
ATTDEF
  5
7B
330
76
100
AcDbEntity
  8
0
 62
0
100
AcDbText
 10
-1.5
 20
3.398076211353316
 30
0.0
 40
2.5
  1
+0,00
  7
IRAM-N
 11
-1.5
 21
3.398076211353316
 31
0.0
100
AcDbAttributeDefinition
  3
Cota con signo (+3,90)
  2
COTA
 70
0
 74
1
 71
1
 72
0
 11
-1.5
 21
3.398076211353316
 31
0.0
  0
ATTDEF
  5
7C
330
76
100
AcDbEntity
  8
0
 62
0
100
AcDbText
 10
14.5
 20
2.598076211353316
 30
0.0
 40
2.5
  1

  7
IRAM-N
 11
14.5
 21
2.598076211353316
 31
0.0
100
AcDbAttributeDefinition
  3
Descripción del nivel
  2
DESC
 70
0
 74
2
 71
1
 72
0
 11
14.5
 21
2.598076211353316
 31
0.0
  0
ENDBLK
  5
78
330
76
100
AcDbEntity
  8
0
100
AcDbBlockEnd
  0
BLOCK
  5
7E
330
7D
100
AcDbEntity
  8
0
100
AcDbBlockBegin
  2
NIVEL-CORTE-IZQ
 70
2
 10
0.0
 20
0.0
 30
0.0
  3
NIVEL-CORTE-IZQ
  1

  0
LWPOLYLINE
  5
80
330
7D
100
AcDbEntity
  8
0
 62
0
100
AcDbPolyline
 90
3
 70
1
 10
0.0
 20
0.0
 10
-1.5
 20
2.598076211353316
 10
1.5
 20
2.598076211353316
  0
LINE
  5
81
330
7D
100
AcDbEntity
  8
0
 62
0
100
AcDbLine
 10
1.5
 20
2.598076211353316
 30
0.0
 11
-13.5
 21
2.598076211353316
 31
0.0
  0
ATTDEF
  5
82
330
7D
100
AcDbEntity
  8
0
 62
0
100
AcDbText
 10
1.5
 20
3.398076211353316
 30
0.0
 40
2.5
  1
+0,00
  7
IRAM-N
 72
2
 11
1.5
 21
3.398076211353316
 31
0.0
100
AcDbAttributeDefinition
  3
Cota con signo (+3,90)
  2
COTA
 70
0
 74
1
 71
1
 72
0
 11
1.5
 21
3.398076211353316
 31
0.0
  0
ATTDEF
  5
83
330
7D
100
AcDbEntity
  8
0
 62
0
100
AcDbText
 10
-14.5
 20
2.598076211353316
 30
0.0
 40
2.5
  1

  7
IRAM-N
 72
2
 11
-14.5
 21
2.598076211353316
 31
0.0
100
AcDbAttributeDefinition
  3
Descripción del nivel
  2
DESC
 70
0
 74
2
 71
1
 72
0
 11
-14.5
 21
2.598076211353316
 31
0.0
  0
ENDBLK
  5
7F
330
7D
100
AcDbEntity
  8
0
100
AcDbBlockEnd
  0
BLOCK
  5
85
330
84
100
AcDbEntity
  8
0
100
AcDbBlockBegin
  2
NIVEL-PLANTA
 70
2
 10
0.0
 20
0.0
 30
0.0
  3
NIVEL-PLANTA
  1

  0
CIRCLE
  5
87
330
84
100
AcDbEntity
  8
0
 62
0
100
AcDbCircle
 10
0.0
 20
0.0
 30
0.0
 40
2.0
  0
LINE
  5
88
330
84
100
AcDbEntity
  8
0
 62
0
100
AcDbLine
 10
-2.0
 20
0.0
 30
0.0
 11
2.0
 21
0.0
 31
0.0
  0
LINE
  5
89
330
84
100
AcDbEntity
  8
0
 62
0
100
AcDbLine
 10
0.0
 20
-2.0
 30
0.0
 11
0.0
 21
2.0
 31
0.0
  0
HATCH
  5
8A
330
84
100
AcDbEntity
  8
0
 62
0
100
AcDbHatch
 10
0.0
 20
0.0
 30
0.0
210
0.0
220
0.0
230
1.0
  2
SOLID
 70
1
 71
0
 91
1
 92
3
 72
0
 73
1
 93
11
 10
0.0
 20
0.0
 10
2.0
 20
0.0
 10
1.969615506024416
 20
0.34729635533386066
 10
1.8793852415718169
 20
0.6840402866513374
 10
1.7320508075688774
 20
0.9999999999999999
 10
1.532088886237956
 20
1.2855752193730785
 10
1.2855752193730787
 20
1.532088886237956
 10
1.0000000000000002
 20
1.7320508075688772
 10
0.6840402866513376
 20
1.8793852415718166
 10
0.34729635533386083
 20
1.969615506024416
 10
1.2246467991473532e-16
 20
2.0
 97
0
 75
0
 76
1
 98
0
  0
HATCH
  5
8B
330
84
100
AcDbEntity
  8
0
 62
0
100
AcDbHatch
 10
0.0
 20
0.0
 30
0.0
210
0.0
220
0.0
230
1.0
  2
SOLID
 70
1
 71
0
 91
1
 92
3
 72
0
 73
1
 93
11
 10
0.0
 20
0.0
 10
-2.0
 20
2.4492935982947064e-16
 10
-1.969615506024416
 20
-0.34729635533386094
 10
-1.8793852415718169
 20
-0.6840402866513373
 10
-1.7320508075688772
 20
-1.0000000000000002
 10
-1.532088886237956
 20
-1.2855752193730785
 10
-1.285575219373079
 20
-1.5320888862379558
 10
-1.0000000000000009
 20
-1.7320508075688767
 10
-0.6840402866513371
 20
-1.8793852415718169
 10
-0.34729635533386066
 20
-1.969615506024416
 10
-3.6739403974420594e-16
 20
-2.0
 97
0
 75
0
 76
1
 98
0
  0
ATTDEF
  5
8C
330
84
100
AcDbEntity
  8
0
 62
0
100
AcDbText
 10
3.2
 20
0.0
 30
0.0
 40
2.5
  1
+0,00
  7
IRAM-N
 11
3.2
 21
0.0
 31
0.0
100
AcDbAttributeDefinition
  3
Cota con signo
  2
COTA
 70
0
 74
2
 71
1
 72
0
 11
3.2
 21
0.0
 31
0.0
  0
ENDBLK
  5
86
330
84
100
AcDbEntity
  8
0
100
AcDbBlockEnd
  0
BLOCK
  5
8E
330
8D
100
AcDbEntity
  8
0
100
AcDbBlockBegin
  2
CORTE
 70
2
 10
0.0
 20
0.0
 30
0.0
  3
CORTE
  1

  0
LINE
  5
90
330
8D
100
AcDbEntity
  8
0
 62
0
370
70
100
AcDbLine
 10
0.0
 20
0.0
 30
0.0
 11
8.0
 21
0.0
 31
0.0
  0
LINE
  5
91
330
8D
100
AcDbEntity
  8
0
 62
0
100
AcDbLine
 10
2.0
 20
0.0
 30
0.0
 11
2.0
 21
-6.0
 31
0.0
  0
HATCH
  5
92
330
8D
100
AcDbEntity
  8
0
 62
0
100
AcDbHatch
 10
0.0
 20
0.0
 30
0.0
210
0.0
220
0.0
230
1.0
  2
SOLID
 70
1
 71
0
 91
1
 92
3
 72
0
 73
1
 93
3
 10
2.0
 20
-9.0
 10
0.9
 20
-5.6
 10
3.1
 20
-5.6
 97
0
 75
0
 76
1
 98
0
  0
ATTDEF
  5
93
330
8D
100
AcDbEntity
  8
0
 62
0
100
AcDbText
 10
2.0
 20
-13.5
 30
0.0
 40
5.0
  1
A
  7
IRAM-N
 72
1
 11
2.0
 21
-13.5
 31
0.0
100
AcDbAttributeDefinition
  3
Letra del corte
  2
LETRA
 70
0
 74
2
 71
1
 72
0
 11
2.0
 21
-13.5
 31
0.0
  0
ATTDEF
  5
94
330
8D
100
AcDbEntity
  8
0
 62
0
100
AcDbText
 10
2.0
 20
-19.5
 30
0.0
 40
2.5
  1
CT-02
  7
IRAM-N
 72
1
 11
2.0
 21
-19.5
 31
0.0
100
AcDbAttributeDefinition
  3
Lámina de destino
  2
LAMINA
 70
0
 74
2
 71
1
 72
0
 11
2.0
 21
-19.5
 31
0.0
  0
ENDBLK
  5
8F
330
8D
100
AcDbEntity
  8
0
100
AcDbBlockEnd
  0
BLOCK
  5
96
330
95
100
AcDbEntity
  8
0
100
AcDbBlockBegin
  2
LLAMADA-DETALLE
 70
2
 10
0.0
 20
0.0
 30
0.0
  3
LLAMADA-DETALLE
  1

  0
CIRCLE
  5
98
330
95
100
AcDbEntity
  8
0
 62
0
100
AcDbCircle
 10
0.0
 20
0.0
 30
0.0
 40
8.0
  0
LINE
  5
99
330
95
100
AcDbEntity
  8
0
 62
0
100
AcDbLine
 10
-8.0
 20
0.0
 30
0.0
 11
8.0
 21
0.0
 31
0.0
  0
ATTDEF
  5
9A
330
95
100
AcDbEntity
  8
0
 62
0
100
AcDbText
 10
0.0
 20
3.6
 30
0.0
 40
3.5
  1
D5
  7
IRAM-N
 72
1
 11
0.0
 21
3.6
 31
0.0
100
AcDbAttributeDefinition
  3
Número de detalle
  2
DETALLE
 70
0
 74
2
 71
1
 72
0
 11
0.0
 21
3.6
 31
0.0
  0
ATTDEF
  5
9B
330
95
100
AcDbEntity
  8
0
 62
0
100
AcDbText
 10
0.0
 20
-3.4
 30
0.0
 40
2.5
  1
DET-05
  7
IRAM-N
 72
1
 11
0.0
 21
-3.4
 31
0.0
100
AcDbAttributeDefinition
  3
Lámina
  2
LAMINA
 70
0
 74
2
 71
1
 72
0
 11
0.0
 21
-3.4
 31
0.0
  0
ENDBLK
  5
97
330
95
100
AcDbEntity
  8
0
100
AcDbBlockEnd
  0
BLOCK
  5
9D
330
9C
100
AcDbEntity
  8
0
100
AcDbBlockBegin
  2
TITULO-VISTA
 70
2
 10
0.0
 20
0.0
 30
0.0
  3
TITULO-VISTA
  1

  0
ATTDEF
  5
9F
330
9C
100
AcDbEntity
  8
0
 62
0
100
AcDbText
 10
0.0
 20
0.0
 30
0.0
 40
3.5
  1
A
  7
IRAM-NEGRITA
 11
0.0
 21
0.0
 31
0.0
100
AcDbAttributeDefinition
  3
Letra de la vista
  2
LETRA
 70
0
 71
1
 72
0
 11
0.0
 21
0.0
 31
0.0
  0
TEXT
  5
A0
330
9C
100
AcDbEntity
  8
0
 62
0
100
AcDbText
 10
4.5
 20
0.0
 30
0.0
 40
3.5
  1
—
  7
IRAM-NEGRITA
 11
4.5
 21
0.0
 31
0.0
100
AcDbText
  0
ATTDEF
  5
A1
330
9C
100
AcDbEntity
  8
0
 62
0
100
AcDbText
 10
10.5
 20
0.0
 30
0.0
 40
3.5
  1
TÍTULO DE LA VISTA
  7
IRAM-NEGRITA
 11
10.5
 21
0.0
 31
0.0
100
AcDbAttributeDefinition
  3
Título de la vista
  2
TITULO
 70
0
 71
1
 72
0
 11
10.5
 21
0.0
 31
0.0
  0
ATTDEF
  5
A2
330
9C
100
AcDbEntity
  8
0
 62
0
100
AcDbText
 10
90.0
 20
0.0
 30
0.0
 40
3.5
  1
Esc. 1:10
  7
IRAM-N
 11
90.0
 21
0.0
 31
0.0
100
AcDbAttributeDefinition
  3
Escala
  2
ESCALA
 70
0
 71
1
 72
0
 11
90.0
 21
0.0
 31
0.0
  0
ENDBLK
  5
9E
330
9C
100
AcDbEntity
  8
0
100
AcDbBlockEnd
  0
BLOCK
  5
A4
330
A3
100
AcDbEntity
  8
0
100
AcDbBlockBegin
  2
NORTE
 70
2
 10
0.0
 20
0.0
 30
0.0
  3
NORTE
  1

  0
CIRCLE
  5
A6
330
A3
100
AcDbEntity
  8
0
 62
0
100
AcDbCircle
 10
0.0
 20
0.0
 30
0.0
 40
6.0
  0
LWPOLYLINE
  5
A7
330
A3
100
AcDbEntity
  8
0
 62
0
100
AcDbPolyline
 90
4
 70
1
 10
0.0
 20
6.0
 10
-2.6
 20
-4.5
 10
0.0
 20
-2.8
 10
2.6
 20
-4.5
  0
HATCH
  5
A8
330
A3
100
AcDbEntity
  8
0
 62
0
100
AcDbHatch
 10
0.0
 20
0.0
 30
0.0
210
0.0
220
0.0
230
1.0
  2
SOLID
 70
1
 71
0
 91
1
 92
3
 72
0
 73
1
 93
3
 10
0.0
 20
6.0
 10
0.0
 20
-2.8
 10
2.6
 20
-4.5
 97
0
 75
0
 76
1
 98
0
  0
ATTDEF
  5
A9
330
A3
100
AcDbEntity
  8
0
 62
0
100
AcDbText
 10
0.0
 20
9.5
 30
0.0
 40
5.0
  1
N
  7
IRAM-N
 72
1
 11
0.0
 21
9.5
 31
0.0
100
AcDbAttributeDefinition
  3
Letra norte
  2
N
 70
0
 74
2
 71
1
 72
0
 11
0.0
 21
9.5
 31
0.0
  0
ENDBLK
  5
A5
330
A3
100
AcDbEntity
  8
0
100
AcDbBlockEnd
  0
BLOCK
  5
AB
330
AA
100
AcDbEntity
  8
0
100
AcDbBlockBegin
  2
EJE
 70
2
 10
0.0
 20
0.0
 30
0.0
  3
EJE
  1

  0
CIRCLE
  5
AD
330
AA
100
AcDbEntity
  8
0
 62
0
100
AcDbCircle
 10
0.0
 20
0.0
 30
0.0
 40
4.0
  0
ATTDEF
  5
AE
330
AA
100
AcDbEntity
  8
0
 62
0
100
AcDbText
 10
0.0
 20
0.0
 30
0.0
 40
3.5
  1
L1
  7
IRAM-N
 72
1
 11
0.0
 21
0.0
 31
0.0
100
AcDbAttributeDefinition
  3
Designación del eje
  2
EJE
 70
0
 74
2
 71
1
 72
0
 11
0.0
 21
0.0
 31
0.0
  0
ENDBLK
  5
AC
330
AA
100
AcDbEntity
  8
0
100
AcDbBlockEnd
  0
BLOCK
  5
B0
330
AF
100
AcDbEntity
  8
0
100
AcDbBlockBegin
  2
FLUJO
 70
0
 10
0.0
 20
0.0
 30
0.0
  3
FLUJO
  1

  0
LINE
  5
B2
330
AF
100
AcDbEntity
  8
0
 62
10
370
35
100
AcDbLine
 10
0.0
 20
0.0
 30
0.0
 11
7.0
 21
0.0
 31
0.0
  0
HATCH
  5
B3
330
AF
100
AcDbEntity
  8
0
 62
10
100
AcDbHatch
 10
0.0
 20
0.0
 30
0.0
210
0.0
220
0.0
230
1.0
  2
SOLID
 70
1
 71
0
 91
1
 92
3
 72
0
 73
1
 93
3
 10
10.0
 20
0.0
 10
7.0
 20
1.1
 10
7.0
 20
-1.1
 97
0
 75
0
 76
1
 98
0
  0
ENDBLK
  5
B1
330
AF
100
AcDbEntity
  8
0
100
AcDbBlockEnd
  0
BLOCK
  5
B5
330
B4
100
AcDbEntity
  8
0
100
AcDbBlockBegin
  2
PASO-RECORRIDO
 70
2
 10
0.0
 20
0.0
 30
0.0
  3
PASO-RECORRIDO
  1

  0
CIRCLE
  5
B7
330
B4
100
AcDbEntity
  8
0
 62
10
370
35
100
AcDbCircle
 10
0.0
 20
0.0
 30
0.0
 40
3.0
  0
ATTDEF
  5
B8
330
B4
100
AcDbEntity
  8
0
 62
10
100
AcDbText
 10
0.0
 20
0.0
 30
0.0
 40
2.5
  1
1
  7
IRAM-NEGRITA
 72
1
 11
0.0
 21
0.0
 31
0.0
100
AcDbAttributeDefinition
  3
Paso del recorrido
  2
N
 70
0
 74
2
 71
1
 72
0
 11
0.0
 21
0.0
 31
0.0
  0
ENDBLK
  5
B6
330
B4
100
AcDbEntity
  8
0
100
AcDbBlockEnd
  0
BLOCK
  5
BC
330
BB
100
AcDbEntity
  8
0
100
AcDbBlockBegin
  2
ROTULO-A3
 70
2
 10
0.0
 20
0.0
 30
0.0
  3
ROTULO-A3
  1

  0
LWPOLYLINE
  5
BE
330
BB
100
AcDbEntity
  8
0
 62
0
370
70
100
AcDbPolyline
 90
4
 70
1
 10
-175.0
 20
0.0
 10
0.0
 20
0.0
 10
0.0
 20
89.5
 10
-175.0
 20
89.5
  0
LINE
  5
BF
330
BB
100
AcDbEntity
  8
0
 62
0
100
AcDbLine
 10
-175.0
 20
15.0
 30
0.0
 11
-30.0
 21
15.0
 31
0.0
  0
LINE
  5
C0
330
BB
100
AcDbEntity
  8
0
 62
0
100
AcDbLine
 10
-175.0
 20
24.5
 30
0.0
 11
0.0
 21
24.5
 31
0.0
  0
LINE
  5
C1
330
BB
100
AcDbEntity
  8
0
 62
0
100
AcDbLine
 10
-175.0
 20
34.0
 30
0.0
 11
0.0
 21
34.0
 31
0.0
  0
LINE
  5
C2
330
BB
100
AcDbEntity
  8
0
 62
0
100
AcDbLine
 10
-175.0
 20
43.5
 30
0.0
 11
0.0
 21
43.5
 31
0.0
  0
LINE
  5
C3
330
BB
100
AcDbEntity
  8
0
 62
0
100
AcDbLine
 10
-175.0
 20
67.5
 30
0.0
 11
0.0
 21
67.5
 31
0.0
  0
LINE
  5
C4
330
BB
100
AcDbEntity
  8
0
 62
0
100
AcDbLine
 10
-175.0
 20
77.5
 30
0.0
 11
0.0
 21
77.5
 31
0.0
  0
LINE
  5
C5
330
BB
100
AcDbEntity
  8
0
 62
0
100
AcDbLine
 10
-175.0
 20
83.5
 30
0.0
 11
0.0
 21
83.5
 31
0.0
  0
LINE
  5
C6
330
BB
100
AcDbEntity
  8
0
 62
0
100
AcDbLine
 10
-133.0
 20
0.0
 30
0.0
 11
-133.0
 21
15.0
 31
0.0
  0
LINE
  5
C7
330
BB
100
AcDbEntity
  8
0
 62
0
100
AcDbLine
 10
-107.0
 20
0.0
 30
0.0
 11
-107.0
 21
15.0
 31
0.0
  0
LINE
  5
C8
330
BB
100
AcDbEntity
  8
0
 62
0
100
AcDbLine
 10
-91.0
 20
0.0
 30
0.0
 11
-91.0
 21
15.0
 31
0.0
  0
LINE
  5
C9
330
BB
100
AcDbEntity
  8
0
 62
0
100
AcDbLine
 10
-30.0
 20
0.0
 30
0.0
 11
-30.0
 21
15.0
 31
0.0
  0
LINE
  5
CA
330
BB
100
AcDbEntity
  8
0
 62
0
100
AcDbLine
 10
-90.0
 20
15.0
 30
0.0
 11
-90.0
 21
24.5
 31
0.0
  0
LINE
  5
CB
330
BB
100
AcDbEntity
  8
0
 62
0
100
AcDbLine
 10
-60.0
 20
15.0
 30
0.0
 11
-60.0
 21
24.5
 31
0.0
  0
LINE
  5
CC
330
BB
100
AcDbEntity
  8
0
 62
0
100
AcDbLine
 10
-30.0
 20
15.0
 30
0.0
 11
-30.0
 21
24.5
 31
0.0
  0
LINE
  5
CD
330
BB
100
AcDbEntity
  8
0
 62
0
100
AcDbLine
 10
-121.0
 20
24.5
 30
0.0
 11
-121.0
 21
34.0
 31
0.0
  0
LINE
  5
CE
330
BB
100
AcDbEntity
  8
0
 62
0
100
AcDbLine
 10
-81.0
 20
24.5
 30
0.0
 11
-81.0
 21
34.0
 31
0.0
  0
LINE
  5
CF
330
BB
100
AcDbEntity
  8
0
 62
0
100
AcDbLine
 10
-33.0
 20
24.5
 30
0.0
 11
-33.0
 21
34.0
 31
0.0
  0
LINE
  5
D0
330
BB
100
AcDbEntity
  8
0
 62
0
100
AcDbLine
 10
-58.0
 20
34.0
 30
0.0
 11
-58.0
 21
43.5
 31
0.0
  0
LINE
  5
D1
330
BB
100
AcDbEntity
  8
0
 62
0
100
AcDbLine
 10
-160.0
 20
77.5
 30
0.0
 11
-160.0
 21
89.5
 31
0.0
  0
LINE
  5
D2
330
BB
100
AcDbEntity
  8
0
 62
0
100
AcDbLine
 10
-132.0
 20
77.5
 30
0.0
 11
-132.0
 21
89.5
 31
0.0
  0
LINE
  5
D3
330
BB
100
AcDbEntity
  8
0
 62
0
100
AcDbLine
 10
-45.0
 20
77.5
 30
0.0
 11
-45.0
 21
89.5
 31
0.0
  0
TEXT
  5
D4
330
BB
100
AcDbEntity
  8
0
 62
0
100
AcDbText
 10
-174.0
 20
13.8
 30
0.0
 40
2.5
  1
CÓDIGO
  7
IRAM-N
 11
-174.0
 21
13.8
 31
0.0
100
AcDbText
 73
3
  0
ATTDEF
  5
D5
330
BB
100
AcDbEntity
  8
0
 62
0
100
AcDbText
 10
-154.0
 20
1.5
 30
0.0
 40
7.0
  1
PL-00
  7
IRAM-N
 72
1
 11
-154.0
 21
1.5
 31
0.0
100
AcDbAttributeDefinition
  3
CODIGO
  2
CODIGO
 70
0
 74
1
 71
1
 72
0
 11
-154.0
 21
1.5
 31
0.0
  0
TEXT
  5
D6
330
BB
100
AcDbEntity
  8
0
 62
0
100
AcDbText
 10
-132.0
 20
13.8
 30
0.0
 40
2.5
  1
LÁMINA
  7
IRAM-N
 11
-132.0
 21
13.8
 31
0.0
100
AcDbText
 73
3
  0
ATTDEF
  5
D7
330
BB
100
AcDbEntity
  8
0
 62
0
100
AcDbText
 10
-120.0
 20
1.5
 30
0.0
 40
3.5
  1
1 de 14
  7
IRAM-N
 72
1
 11
-120.0
 21
1.5
 31
0.0
100
AcDbAttributeDefinition
  3
LAMINA
  2
LAMINA
 70
0
 74
1
 71
1
 72
0
 11
-120.0
 21
1.5
 31
0.0
  0
TEXT
  5
D8
330
BB
100
AcDbEntity
  8
0
 62
0
100
AcDbText
 10
-106.0
 20
13.8
 30
0.0
 40
2.5
  1
REV.
  7
IRAM-N
 11
-106.0
 21
13.8
 31
0.0
100
AcDbText
 73
3
  0
ATTDEF
  5
D9
330
BB
100
AcDbEntity
  8
0
 62
0
100
AcDbText
 10
-99.0
 20
1.5
 30
0.0
 40
3.5
  1
E
  7
IRAM-N
 72
1
 11
-99.0
 21
1.5
 31
0.0
100
AcDbAttributeDefinition
  3
REV
  2
REV
 70
0
 74
1
 71
1
 72
0
 11
-99.0
 21
1.5
 31
0.0
  0
TEXT
  5
DA
330
BB
100
AcDbEntity
  8
0
 62
0
100
AcDbText
 10
-90.0
 20
13.8
 30
0.0
 40
2.5
  1
UNIDAD
  7
IRAM-N
 11
-90.0
 21
13.8
 31
0.0
100
AcDbText
 73
3
  0
ATTDEF
  5
DB
330
BB
100
AcDbEntity
  8
0
 62
0
100
AcDbText
 10
-90.0
 20
5.2
 30
0.0
 40
2.5
  1
m / mm
  7
IRAM-N
 11
-90.0
 21
5.2
 31
0.0
100
AcDbAttributeDefinition
  3
UNIDAD
  2
UNIDAD
 70
0
 74
1
 71
1
 72
0
 11
-90.0
 21
5.2
 31
0.0
  0
ATTDEF
  5
DC
330
BB
100
AcDbEntity
  8
0
 62
0
100
AcDbText
 10
-90.0
 20
1.2
 30
0.0
 40
2.5
  1
cotas en m salvo indicación
  7
IRAM-N
 11
-90.0
 21
1.2
 31
0.0
100
AcDbAttributeDefinition
  3
UNIDAD_NOTA
  2
UNIDAD_NOTA
 70
0
 74
1
 71
1
 72
0
 11
-90.0
 21
1.2
 31
0.0
  0
TEXT
  5
DD
330
BB
100
AcDbEntity
  8
0
 62
0
100
AcDbText
 10
-174.0
 20
23.3
 30
0.0
 40
2.5
  1
ESCALA(S)
  7
IRAM-N
 11
-174.0
 21
23.3
 31
0.0
100
AcDbText
 73
3
  0
ATTDEF
  5
DE
330
BB
100
AcDbEntity
  8
0
 62
0
100
AcDbText
 10
-174.0
 20
16.2
 30
0.0
 40
2.5
  1
—
  7
IRAM-N
 11
-174.0
 21
16.2
 31
0.0
100
AcDbAttributeDefinition
  3
ESCALA
  2
ESCALA
 70
0
 74
1
 71
1
 72
0
 11
-174.0
 21
16.2
 31
0.0
  0
TEXT
  5
DF
330
BB
100
AcDbEntity
  8
0
 62
0
100
AcDbText
 10
-89.0
 20
23.3
 30
0.0
 40
2.5
  1
FECHA
  7
IRAM-N
 11
-89.0
 21
23.3
 31
0.0
100
AcDbText
 73
3
  0
ATTDEF
  5
E0
330
BB
100
AcDbEntity
  8
0
 62
0
100
AcDbText
 10
-89.0
 20
16.2
 30
0.0
 40
2.5
  1
03/10/2026
  7
IRAM-N
 11
-89.0
 21
16.2
 31
0.0
100
AcDbAttributeDefinition
  3
FECHA
  2
FECHA
 70
0
 74
1
 71
1
 72
0
 11
-89.0
 21
16.2
 31
0.0
  0
TEXT
  5
E1
330
BB
100
AcDbEntity
  8
0
 62
0
100
AcDbText
 10
-59.0
 20
23.3
 30
0.0
 40
2.5
  1
IMPRESIÓN
  7
IRAM-N
 11
-59.0
 21
23.3
 31
0.0
100
AcDbText
 73
3
  0
ATTDEF
  5
E2
330
BB
100
AcDbEntity
  8
0
 62
0
100
AcDbText
 10
-59.0
 20
16.2
 30
0.0
 40
2.5
  1
--/--/----
  7
IRAM-N
 11
-59.0
 21
16.2
 31
0.0
100
AcDbAttributeDefinition
  3
IMPRESION
  2
IMPRESION
 70
0
 74
1
 71
1
 72
0
 11
-59.0
 21
16.2
 31
0.0
  0
TEXT
  5
E3
330
BB
100
AcDbEntity
  8
0
 62
0
100
AcDbText
 10
-174.0
 20
32.8
 30
0.0
 40
2.5
  1
DIBUJÓ
  7
IRAM-N
 11
-174.0
 21
32.8
 31
0.0
100
AcDbText
 73
3
  0
ATTDEF
  5
E4
330
BB
100
AcDbEntity
  8
0
 62
0
100
AcDbText
 10
-174.0
 20
25.7
 30
0.0
 40
2.5
  1
Gabriel Planckensteiner
  7
IRAM-N
 11
-174.0
 21
25.7
 31
0.0
100
AcDbAttributeDefinition
  3
DIBUJO
  2
DIBUJO
 70
0
 74
1
 71
1
 72
0
 11
-174.0
 21
25.7
 31
0.0
  0
TEXT
  5
E5
330
BB
100
AcDbEntity
  8
0
 62
0
100
AcDbText
 10
-120.0
 20
32.8
 30
0.0
 40
2.5
  1
VERIFICÓ
  7
IRAM-N
 11
-120.0
 21
32.8
 31
0.0
100
AcDbText
 73
3
  0
ATTDEF
  5
E6
330
BB
100
AcDbEntity
  8
0
 62
0
100
AcDbText
 10
-120.0
 20
25.7
 30
0.0
 40
2.5
  1
Ing. R. Bonaiuti
  7
IRAM-N
 11
-120.0
 21
25.7
 31
0.0
100
AcDbAttributeDefinition
  3
VERIFICO
  2
VERIFICO
 70
0
 74
1
 71
1
 72
0
 11
-120.0
 21
25.7
 31
0.0
  0
TEXT
  5
E7
330
BB
100
AcDbEntity
  8
0
 62
0
100
AcDbText
 10
-80.0
 20
32.8
 30
0.0
 40
2.5
  1
TUTOR EXTERNO
  7
IRAM-N
 11
-80.0
 21
32.8
 31
0.0
100
AcDbText
 73
3
  0
ATTDEF
  5
E8
330
BB
100
AcDbEntity
  8
0
 62
0
100
AcDbText
 10
-80.0
 20
25.7
 30
0.0
 40
2.5
  1
C. D. Solera (AGD)
  7
IRAM-N
 11
-80.0
 21
25.7
 31
0.0
100
AcDbAttributeDefinition
  3
TUTOR
  2
TUTOR
 70
0
 74
1
 71
1
 72
0
 11
-80.0
 21
25.7
 31
0.0
  0
TEXT
  5
E9
330
BB
100
AcDbEntity
  8
0
 62
0
100
AcDbText
 10
-32.0
 20
32.8
 30
0.0
 40
2.5
  1
N.º PROYECTO
  7
IRAM-N
 11
-32.0
 21
32.8
 31
0.0
100
AcDbText
 73
3
  0
ATTDEF
  5
EA
330
BB
100
AcDbEntity
  8
0
 62
0
100
AcDbText
 10
-32.0
 20
25.7
 30
0.0
 40
2.5
  1
VJN001
  7
IRAM-N
 11
-32.0
 21
25.7
 31
0.0
100
AcDbAttributeDefinition
  3
NPROYECTO
  2
NPROYECTO
 70
0
 74
1
 71
1
 72
0
 11
-32.0
 21
25.7
 31
0.0
  0
TEXT
  5
EB
330
BB
100
AcDbEntity
  8
0
 62
0
100
AcDbText
 10
-174.0
 20
42.3
 30
0.0
 40
2.5
  1
INTEGRANTES
  7
IRAM-N
 11
-174.0
 21
42.3
 31
0.0
100
AcDbText
 73
3
  0
ATTDEF
  5
EC
330
BB
100
AcDbEntity
  8
0
 62
0
100
AcDbText
 10
-174.0
 20
35.2
 30
0.0
 40
2.5
  1
Fernández · Planckensteiner · Quiroga Palacio · Solera
  7
IRAM-N
 11
-174.0
 21
35.2
 31
0.0
100
AcDbAttributeDefinition
  3
INTEGRANTES
  2
INTEGRANTES
 70
0
 74
1
 71
1
 72
0
 11
-174.0
 21
35.2
 31
0.0
  0
TEXT
  5
ED
330
BB
100
AcDbEntity
  8
0
 62
0
100
AcDbText
 10
-57.0
 20
42.3
 30
0.0
 40
2.5
  1
ARCHIVO
  7
IRAM-N
 11
-57.0
 21
42.3
 31
0.0
100
AcDbText
 73
3
  0
ATTDEF
  5
EE
330
BB
100
AcDbEntity
  8
0
 62
0
100
AcDbText
 10
-57.0
 20
35.2
 30
0.0
 40
2.5
  1
PLANOS_AGD-2026.dwg
  7
IRAM-N
 11
-57.0
 21
35.2
 31
0.0
100
AcDbAttributeDefinition
  3
ARCHIVO
  2
ARCHIVO
 70
0
 74
1
 71
1
 72
0
 11
-57.0
 21
35.2
 31
0.0
  0
TEXT
  5
EF
330
BB
100
AcDbEntity
  8
0
 62
0
100
AcDbText
 10
-29.0
 20
23.3
 30
0.0
 40
2.5
  1
MÉTODO ISO E
  7
IRAM-N
 11
-29.0
 21
23.3
 31
0.0
100
AcDbText
 73
3
  0
LWPOLYLINE
  5
F0
330
BB
100
AcDbEntity
  8
0
 62
0
100
AcDbPolyline
 90
4
 70
1
 10
-26.5
 20
7.5
 10
-18.5
 20
5.5
 10
-18.5
 20
13.5
 10
-26.5
 20
11.5
  0
CIRCLE
  5
F1
330
BB
100
AcDbEntity
  8
0
 62
0
100
AcDbCircle
 10
-9.5
 20
9.5
 30
0.0
 40
4.0
  0
CIRCLE
  5
F2
330
BB
100
AcDbEntity
  8
0
 62
0
100
AcDbCircle
 10
-9.5
 20
9.5
 30
0.0
 40
2.0
  0
LINE
  5
F3
330
BB
100
AcDbEntity
  8
0
  6
ACAD_ISO04W100
 62
0
370
18
 48
0.15
100
AcDbLine
 10
-28.0
 20
9.5
 30
0.0
 11
-17.0
 21
9.5
 31
0.0
  0
LINE
  5
F4
330
BB
100
AcDbEntity
  8
0
  6
ACAD_ISO04W100
 62
0
370
18
 48
0.15
100
AcDbLine
 10
-15.0
 20
9.5
 30
0.0
 11
-4.0
 21
9.5
 31
0.0
  0
LINE
  5
F5
330
BB
100
AcDbEntity
  8
0
  6
ACAD_ISO04W100
 62
0
370
18
 48
0.15
100
AcDbLine
 10
-9.5
 20
4.0
 30
0.0
 11
-9.5
 21
15.0
 31
0.0
  0
ATTDEF
  5
F6
330
BB
100
AcDbEntity
  8
0
 62
0
100
AcDbText
 10
-173.0
 20
66.0
 30
0.0
 40
5.0
  1
Título de la lámina
  7
IRAM-NEGRITA
 11
-173.0
 21
66.0
 31
0.0
100
AcDbAttributeDefinition
  3
TITULO
  2
TITULO
 70
0
 74
3
 71
4
 72
0
 11
-173.0
 21
66.0
 31
0.0
101
Embedded Object
 10
-173.0
 20
66.0
 30
0.0
 40
5.0
 41
171.0
 46
0.0
 71
1
 72
5
  1
Título de la lámina
  7
IRAM-NEGRITA
  0
ATTDEF
  5
F7
330
BB
100
AcDbEntity
  8
0
 62
0
100
AcDbText
 10
-173.0
 20
44.8
 30
0.0
 40
2.5
  1
Subtítulo
  7
IRAM-N
 11
-173.0
 21
44.8
 31
0.0
100
AcDbAttributeDefinition
  3
SUBTITULO
  2
SUBTITULO
 70
0
 74
1
 71
4
 72
0
 11
-173.0
 21
44.8
 31
0.0
101
Embedded Object
 10
-173.0
 20
44.8
 30
0.0
 40
2.5
 41
171.0
 46
0.0
 71
7
 72
5
  1
Subtítulo
  7
IRAM-N
  0
ATTDEF
  5
F8
330
BB
100
AcDbEntity
  8
0
 62
0
100
AcDbText
 10
-173.0
 20
76.3
 30
0.0
 40
2.5
  1
UTN — Facultad Regional Córdoba · Ingeniería Industrial · Proyecto Final
  7
IRAM-NEGRITA
 11
-173.0
 21
76.3
 31
0.0
100
AcDbAttributeDefinition
  3
ENCABEZADO
  2
ENCABEZADO
 70
0
 74
3
 71
1
 72
0
 11
-173.0
 21
76.3
 31
0.0
  0
ATTDEF
  5
F9
330
BB
100
AcDbEntity
  8
0
 62
0
100
AcDbText
 10
-173.0
 20
68.7
 30
0.0
 40
2.5
  1
Sistema de distribución de fertilizantes a granel — Redler — AGD Río Primero
  7
IRAM-N
 11
-173.0
 21
68.7
 31
0.0
100
AcDbAttributeDefinition
  3
SISTEMA
  2
SISTEMA
 70
0
 74
1
 71
1
 72
0
 11
-173.0
 21
68.7
 31
0.0
  0
TEXT
  5
FA
330
BB
100
AcDbEntity
  8
0
 62
0
100
AcDbText
 10
-167.5
 20
80.5
 30
0.0
 40
2.5
  1
REV.
  7
IRAM-NEGRITA
 72
1
 11
-167.5
 21
80.5
 31
0.0
100
AcDbText
 73
2
  0
ATTDEF
  5
FB
330
BB
100
AcDbEntity
  8
0
 62
0
100
AcDbText
 10
-167.5
 20
86.5
 30
0.0
 40
2.5
  1
E
  7
IRAM-N
 72
1
 11
-167.5
 21
86.5
 31
0.0
100
AcDbAttributeDefinition
  3
REV1_REV
  2
REV1_REV
 70
0
 74
2
 71
1
 72
0
 11
-167.5
 21
86.5
 31
0.0
  0
TEXT
  5
FC
330
BB
100
AcDbEntity
  8
0
 62
0
100
AcDbText
 10
-146.0
 20
80.5
 30
0.0
 40
2.5
  1
FECHA
  7
IRAM-NEGRITA
 72
1
 11
-146.0
 21
80.5
 31
0.0
100
AcDbText
 73
2
  0
ATTDEF
  5
FD
330
BB
100
AcDbEntity
  8
0
 62
0
100
AcDbText
 10
-146.0
 20
86.5
 30
0.0
 40
2.5
  1
03/10/2026
  7
IRAM-N
 72
1
 11
-146.0
 21
86.5
 31
0.0
100
AcDbAttributeDefinition
  3
REV1_FECHA
  2
REV1_FECHA
 70
0
 74
2
 71
1
 72
0
 11
-146.0
 21
86.5
 31
0.0
  0
TEXT
  5
FE
330
BB
100
AcDbEntity
  8
0
 62
0
100
AcDbText
 10
-88.5
 20
80.5
 30
0.0
 40
2.5
  1
DESCRIPCIÓN
  7
IRAM-NEGRITA
 72
1
 11
-88.5
 21
80.5
 31
0.0
100
AcDbText
 73
2
  0
ATTDEF
  5
FF
330
BB
100
AcDbEntity
  8
0
 62
0
100
AcDbText
 10
-131.0
 20
86.5
 30
0.0
 40
2.5
  1
Emisión tercera entrega
  7
IRAM-N
 11
-131.0
 21
86.5
 31
0.0
100
AcDbAttributeDefinition
  3
REV1_DESCRIPCION
  2
REV1_DESCRIPCION
 70
0
 74
2
 71
1
 72
0
 11
-131.0
 21
86.5
 31
0.0
  0
TEXT
  5
100
330
BB
100
AcDbEntity
  8
0
 62
0
100
AcDbText
 10
-22.5
 20
80.5
 30
0.0
 40
2.5
  1
DIBUJÓ
  7
IRAM-NEGRITA
 72
1
 11
-22.5
 21
80.5
 31
0.0
100
AcDbText
 73
2
  0
ATTDEF
  5
101
330
BB
100
AcDbEntity
  8
0
 62
0
100
AcDbText
 10
-44.0
 20
86.5
 30
0.0
 40
2.5
  1
G. Planckensteiner
  7
IRAM-N
 11
-44.0
 21
86.5
 31
0.0
100
AcDbAttributeDefinition
  3
REV1_DIBUJO
  2
REV1_DIBUJO
 70
0
 74
2
 71
1
 72
0
 11
-44.0
 21
86.5
 31
0.0
  0
ENDBLK
  5
BD
330
BB
100
AcDbEntity
  8
0
100
AcDbBlockEnd
  0
BLOCK
  5
103
330
102
100
AcDbEntity
  8
0
100
AcDbBlockBegin
  2
LISTA-MATERIALES
 70
0
 10
0.0
 20
0.0
 30
0.0
  3
LISTA-MATERIALES
  1

  0
LWPOLYLINE
  5
105
330
102
100
AcDbEntity
  8
0
 62
0
370
50
100
AcDbPolyline
 90
4
 70
1
 10
-175.0
 20
0.0
 10
0.0
 20
0.0
 10
0.0
 20
10.0
 10
-175.0
 20
10.0
  0
LINE
  5
106
330
102
100
AcDbEntity
  8
0
 62
0
100
AcDbLine
 10
-166.0
 20
0.0
 30
0.0
 11
-166.0
 21
10.0
 31
0.0
  0
LINE
  5
107
330
102
100
AcDbEntity
  8
0
 62
0
100
AcDbLine
 10
-155.0
 20
0.0
 30
0.0
 11
-155.0
 21
10.0
 31
0.0
  0
LINE
  5
108
330
102
100
AcDbEntity
  8
0
 62
0
100
AcDbLine
 10
-120.0
 20
0.0
 30
0.0
 11
-120.0
 21
10.0
 31
0.0
  0
LINE
  5
109
330
102
100
AcDbEntity
  8
0
 62
0
100
AcDbLine
 10
-91.0
 20
0.0
 30
0.0
 11
-91.0
 21
10.0
 31
0.0
  0
LINE
  5
10A
330
102
100
AcDbEntity
  8
0
 62
0
100
AcDbLine
 10
-53.0
 20
0.0
 30
0.0
 11
-53.0
 21
10.0
 31
0.0
  0
LINE
  5
10B
330
102
100
AcDbEntity
  8
0
 62
0
100
AcDbLine
 10
-31.0
 20
0.0
 30
0.0
 11
-31.0
 21
10.0
 31
0.0
  0
TEXT
  5
10C
330
102
100
AcDbEntity
  8
0
 62
0
100
AcDbText
 10
-170.5
 20
5.0
 30
0.0
 40
2.5
  1
Pos.
  7
IRAM-NEGRITA
 72
1
 11
-170.5
 21
5.0
 31
0.0
100
AcDbText
 73
2
  0
TEXT
  5
10D
330
102
100
AcDbEntity
  8
0
 62
0
100
AcDbText
 10
-160.5
 20
5.0
 30
0.0
 40
2.5
  1
Cant.
  7
IRAM-NEGRITA
 72
1
 11
-160.5
 21
5.0
 31
0.0
100
AcDbText
 73
2
  0
TEXT
  5
10E
330
102
100
AcDbEntity
  8
0
 62
0
100
AcDbText
 10
-137.5
 20
5.0
 30
0.0
 40
2.5
  1
Denominación
  7
IRAM-NEGRITA
 72
1
 11
-137.5
 21
5.0
 31
0.0
100
AcDbText
 73
2
  0
TEXT
  5
10F
330
102
100
AcDbEntity
  8
0
 62
0
100
AcDbText
 10
-105.5
 20
6.6
 30
0.0
 40
2.5
  1
Material /
  7
IRAM-NEGRITA
 72
1
 11
-105.5
 21
6.6
 31
0.0
100
AcDbText
 73
2
  0
TEXT
  5
110
330
102
100
AcDbEntity
  8
0
 62
0
100
AcDbText
 10
-105.5
 20
3.4
 30
0.0
 40
2.5
  1
norma
  7
IRAM-NEGRITA
 72
1
 11
-105.5
 21
3.4
 31
0.0
100
AcDbText
 73
2
  0
TEXT
  5
111
330
102
100
AcDbEntity
  8
0
 62
0
100
AcDbText
 10
-72.0
 20
6.6
 30
0.0
 40
2.5
  1
Dimensiones /
  7
IRAM-NEGRITA
 72
1
 11
-72.0
 21
6.6
 31
0.0
100
AcDbText
 73
2
  0
TEXT
  5
112
330
102
100
AcDbEntity
  8
0
 62
0
100
AcDbText
 10
-72.0
 20
3.4
 30
0.0
 40
2.5
  1
designación
  7
IRAM-NEGRITA
 72
1
 11
-72.0
 21
3.4
 31
0.0
100
AcDbText
 73
2
  0
TEXT
  5
113
330
102
100
AcDbEntity
  8
0
 62
0
100
AcDbText
 10
-42.0
 20
6.6
 30
0.0
 40
2.5
  1
Peso unit.
  7
IRAM-NEGRITA
 72
1
 11
-42.0
 21
6.6
 31
0.0
100
AcDbText
 73
2
  0
TEXT
  5
114
330
102
100
AcDbEntity
  8
0
 62
0
100
AcDbText
 10
-42.0
 20
3.4
 30
0.0
 40
2.5
  1
(kg)
  7
IRAM-NEGRITA
 72
1
 11
-42.0
 21
3.4
 31
0.0
100
AcDbText
 73
2
  0
TEXT
  5
115
330
102
100
AcDbEntity
  8
0
 62
0
100
AcDbText
 10
-15.5
 20
5.0
 30
0.0
 40
2.5
  1
Observaciones
  7
IRAM-NEGRITA
 72
1
 11
-15.5
 21
5.0
 31
0.0
100
AcDbText
 73
2
  0
ENDBLK
  5
104
330
102
100
AcDbEntity
  8
0
100
AcDbBlockEnd
  0
BLOCK
  5
117
330
116
100
AcDbEntity
  8
0
100
AcDbBlockBegin
  2
LM-FILA
 70
2
 10
0.0
 20
0.0
 30
0.0
  3
LM-FILA
  1

  0
LWPOLYLINE
  5
119
330
116
100
AcDbEntity
  8
0
 62
0
100
AcDbPolyline
 90
4
 70
1
 10
-175.0
 20
0.0
 10
0.0
 20
0.0
 10
0.0
 20
6.0
 10
-175.0
 20
6.0
  0
LINE
  5
11A
330
116
100
AcDbEntity
  8
0
 62
0
100
AcDbLine
 10
-166.0
 20
0.0
 30
0.0
 11
-166.0
 21
6.0
 31
0.0
  0
LINE
  5
11B
330
116
100
AcDbEntity
  8
0
 62
0
100
AcDbLine
 10
-155.0
 20
0.0
 30
0.0
 11
-155.0
 21
6.0
 31
0.0
  0
LINE
  5
11C
330
116
100
AcDbEntity
  8
0
 62
0
100
AcDbLine
 10
-120.0
 20
0.0
 30
0.0
 11
-120.0
 21
6.0
 31
0.0
  0
LINE
  5
11D
330
116
100
AcDbEntity
  8
0
 62
0
100
AcDbLine
 10
-91.0
 20
0.0
 30
0.0
 11
-91.0
 21
6.0
 31
0.0
  0
LINE
  5
11E
330
116
100
AcDbEntity
  8
0
 62
0
100
AcDbLine
 10
-53.0
 20
0.0
 30
0.0
 11
-53.0
 21
6.0
 31
0.0
  0
LINE
  5
11F
330
116
100
AcDbEntity
  8
0
 62
0
100
AcDbLine
 10
-31.0
 20
0.0
 30
0.0
 11
-31.0
 21
6.0
 31
0.0
  0
ATTDEF
  5
120
330
116
100
AcDbEntity
  8
0
 62
0
100
AcDbText
 10
-170.5
 20
3.0
 30
0.0
 40
2.5
  1

  7
IRAM-N
 72
1
 11
-170.5
 21
3.0
 31
0.0
100
AcDbAttributeDefinition
  3
POS
  2
POS
 70
0
 74
2
 71
1
 72
0
 11
-170.5
 21
3.0
 31
0.0
  0
ATTDEF
  5
121
330
116
100
AcDbEntity
  8
0
 62
0
100
AcDbText
 10
-160.5
 20
3.0
 30
0.0
 40
2.5
  1

  7
IRAM-N
 72
1
 11
-160.5
 21
3.0
 31
0.0
100
AcDbAttributeDefinition
  3
CANT
  2
CANT
 70
0
 74
2
 71
1
 72
0
 11
-160.5
 21
3.0
 31
0.0
  0
ATTDEF
  5
122
330
116
100
AcDbEntity
  8
0
 62
0
100
AcDbText
 10
-154.0
 20
3.0
 30
0.0
 40
2.5
  1

  7
IRAM-N
 11
-154.0
 21
3.0
 31
0.0
100
AcDbAttributeDefinition
  3
DENOM
  2
DENOM
 70
0
 74
2
 71
1
 72
0
 11
-154.0
 21
3.0
 31
0.0
  0
ATTDEF
  5
123
330
116
100
AcDbEntity
  8
0
 62
0
100
AcDbText
 10
-119.0
 20
3.0
 30
0.0
 40
2.5
  1

  7
IRAM-N
 11
-119.0
 21
3.0
 31
0.0
100
AcDbAttributeDefinition
  3
MAT
  2
MAT
 70
0
 74
2
 71
1
 72
0
 11
-119.0
 21
3.0
 31
0.0
  0
ATTDEF
  5
124
330
116
100
AcDbEntity
  8
0
 62
0
100
AcDbText
 10
-90.0
 20
3.0
 30
0.0
 40
2.5
  1

  7
IRAM-N
 11
-90.0
 21
3.0
 31
0.0
100
AcDbAttributeDefinition
  3
DIM
  2
DIM
 70
0
 74
2
 71
1
 72
0
 11
-90.0
 21
3.0
 31
0.0
  0
ATTDEF
  5
125
330
116
100
AcDbEntity
  8
0
 62
0
100
AcDbText
 10
-42.0
 20
3.0
 30
0.0
 40
2.5
  1

  7
IRAM-N
 72
1
 11
-42.0
 21
3.0
 31
0.0
100
AcDbAttributeDefinition
  3
PESO
  2
PESO
 70
0
 74
2
 71
1
 72
0
 11
-42.0
 21
3.0
 31
0.0
  0
ATTDEF
  5
126
330
116
100
AcDbEntity
  8
0
 62
0
100
AcDbText
 10
-30.0
 20
3.0
 30
0.0
 40
2.5
  1

  7
IRAM-N
 11
-30.0
 21
3.0
 31
0.0
100
AcDbAttributeDefinition
  3
OBS
  2
OBS
 70
0
 74
2
 71
1
 72
0
 11
-30.0
 21
3.0
 31
0.0
  0
ENDBLK
  5
118
330
116
100
AcDbEntity
  8
0
100
AcDbBlockEnd
  0
ENDSEC
  0
SECTION
  2
ENTITIES
  0
LWPOLYLINE
  5
128
330
17
100
AcDbEntity
  8
AN-NOPLOT
100
AcDbPolyline
 90
4
 70
1
 10
-3000.0
 20
-48000.0
 10
26000.0
 20
-48000.0
 10
26000.0
 20
3000.0
 10
-3000.0
 20
3000.0
  0
TEXT
  5
129
330
17
100
AcDbEntity
  8
AN-NOPLOT
100
AcDbText
 10
-2600.0
 20
2600.0
 30
0.0
 40
600.0
  1
ZONA P — Planta general (X, −s)
  7
IRAM-N
 11
-2600.0
 21
2600.0
 31
0.0
100
AcDbText
 73
3
  0
LINE
  5
12A
330
17
100
AcDbEntity
  8
AN-NOPLOT
100
AcDbLine
 10
-1000.0
 20
0.0
 30
0.0
 11
1000.0
 21
0.0
 31
0.0
  0
LINE
  5
12B
330
17
100
AcDbEntity
  8
AN-NOPLOT
100
AcDbLine
 10
0.0
 20
-1000.0
 30
0.0
 11
0.0
 21
1000.0
 31
0.0
  0
LWPOLYLINE
  5
12D
330
17
100
AcDbEntity
  8
AN-NOPLOT
100
AcDbPolyline
 90
4
 70
1
 10
-3000.0
 20
55000.0
 10
26000.0
 20
55000.0
 10
26000.0
 20
70000.0
 10
-3000.0
 20
70000.0
  0
TEXT
  5
12E
330
17
100
AcDbEntity
  8
AN-NOPLOT
100
AcDbText
 10
-2600.0
 20
69600.0
 30
0.0
 40
600.0
  1
ZONA A — Corte A-A, s = 26,85, mirando al norte (X, Z)
  7
IRAM-N
 11
-2600.0
 21
69600.0
 31
0.0
100
AcDbText
 73
3
  0
LINE
  5
12F
330
17
100
AcDbEntity
  8
AN-NOPLOT
100
AcDbLine
 10
-1000.0
 20
60000.0
 30
0.0
 11
1000.0
 21
60000.0
 31
0.0
  0
LINE
  5
130
330
17
100
AcDbEntity
  8
AN-NOPLOT
100
AcDbLine
 10
0.0
 20
59000.0
 30
0.0
 11
0.0
 21
61000.0
 31
0.0
  0
LWPOLYLINE
  5
132
330
17
100
AcDbEntity
  8
AN-NOPLOT
100
AcDbPolyline
 90
4
 70
1
 10
62000.0
 20
55000.0
 10
113000.0
 20
55000.0
 10
113000.0
 20
73000.0
 10
62000.0
 20
73000.0
  0
TEXT
  5
133
330
17
100
AcDbEntity
  8
AN-NOPLOT
100
AcDbText
 10
62400.0
 20
72600.0
 30
0.0
 40
600.0
  1
ZONA B — Corte B-B quebrado, mirando al oeste (s creciente hacia la izquierda, Z)
  7
IRAM-N
 11
62400.0
 21
72600.0
 31
0.0
100
AcDbText
 73
3
  0
LINE
  5
134
330
17
100
AcDbEntity
  8
AN-NOPLOT
100
AcDbLine
 10
111000.0
 20
60000.0
 30
0.0
 11
109000.0
 21
60000.0
 31
0.0
  0
LINE
  5
135
330
17
100
AcDbEntity
  8
AN-NOPLOT
100
AcDbLine
 10
110000.0
 20
59000.0
 30
0.0
 11
110000.0
 21
61000.0
 31
0.0
  0
LWPOLYLINE
  5
137
330
17
100
AcDbEntity
  8
AN-NOPLOT
100
AcDbPolyline
 90
4
 70
1
 10
118000.0
 20
55000.0
 10
140000.0
 20
55000.0
 10
140000.0
 20
73000.0
 10
118000.0
 20
73000.0
  0
TEXT
  5
138
330
17
100
AcDbEntity
  8
AN-NOPLOT
100
AcDbText
 10
118400.0
 20
72600.0
 30
0.0
 40
600.0
  1
ZONA C — Vista C-C desde el exterior (X, Z)
  7
IRAM-N
 11
118400.0
 21
72600.0
 31
0.0
100
AcDbText
 73
3
  0
LINE
  5
139
330
17
100
AcDbEntity
  8
AN-NOPLOT
100
AcDbLine
 10
119000.0
 20
60000.0
 30
0.0
 11
121000.0
 21
60000.0
 31
0.0
  0
LINE
  5
13A
330
17
100
AcDbEntity
  8
AN-NOPLOT
100
AcDbLine
 10
120000.0
 20
59000.0
 30
0.0
 11
120000.0
 21
61000.0
 31
0.0
  0
LWPOLYLINE
  5
13C
330
17
100
AcDbEntity
  8
AN-NOPLOT
100
AcDbPolyline
 90
4
 70
1
 10
118000.0
 20
-25000.0
 10
200000.0
 20
-25000.0
 10
200000.0
 20
25000.0
 10
118000.0
 20
25000.0
  0
TEXT
  5
13D
330
17
100
AcDbEntity
  8
AN-NOPLOT
100
AcDbText
 10
118400.0
 20
24600.0
 30
0.0
 40
600.0
  1
ZONA R — Recepción: vistas de DET-11
  7
IRAM-N
 11
118400.0
 21
24600.0
 31
0.0
100
AcDbText
 73
3
  0
LINE
  5
13E
330
17
100
AcDbEntity
  8
AN-NOPLOT
100
AcDbLine
 10
119000.0
 20
0.0
 30
0.0
 11
121000.0
 21
0.0
 31
0.0
  0
LINE
  5
13F
330
17
100
AcDbEntity
  8
AN-NOPLOT
100
AcDbLine
 10
120000.0
 20
-1000.0
 30
0.0
 11
120000.0
 21
1000.0
 31
0.0
  0
LWPOLYLINE
  5
141
330
17
100
AcDbEntity
  8
AN-NOPLOT
100
AcDbPolyline
 90
4
 70
1
 10
-3000.0
 20
117000.0
 10
110000.0
 20
117000.0
 10
110000.0
 20
146000.0
 10
-3000.0
 20
146000.0
  0
TEXT
  5
142
330
17
100
AcDbEntity
  8
AN-NOPLOT
100
AcDbText
 10
-2600.0
 20
145600.0
 30
0.0
 40
600.0
  1
ZONA DET04 — Detalles de DET-04
  7
IRAM-N
 11
-2600.0
 21
145600.0
 31
0.0
100
AcDbText
 73
3
  0
LINE
  5
143
330
17
100
AcDbEntity
  8
AN-NOPLOT
100
AcDbLine
 10
-1000.0
 20
120000.0
 30
0.0
 11
1000.0
 21
120000.0
 31
0.0
  0
LINE
  5
144
330
17
100
AcDbEntity
  8
AN-NOPLOT
100
AcDbLine
 10
0.0
 20
119000.0
 30
0.0
 11
0.0
 21
121000.0
 31
0.0
  0
LWPOLYLINE
  5
146
330
17
100
AcDbEntity
  8
AN-NOPLOT
100
AcDbPolyline
 90
4
 70
1
 10
-3000.0
 20
147000.0
 10
110000.0
 20
147000.0
 10
110000.0
 20
176000.0
 10
-3000.0
 20
176000.0
  0
TEXT
  5
147
330
17
100
AcDbEntity
  8
AN-NOPLOT
100
AcDbText
 10
-2600.0
 20
175600.0
 30
0.0
 40
600.0
  1
ZONA DET05 — Detalles de DET-05
  7
IRAM-N
 11
-2600.0
 21
175600.0
 31
0.0
100
AcDbText
 73
3
  0
LINE
  5
148
330
17
100
AcDbEntity
  8
AN-NOPLOT
100
AcDbLine
 10
-1000.0
 20
150000.0
 30
0.0
 11
1000.0
 21
150000.0
 31
0.0
  0
LINE
  5
149
330
17
100
AcDbEntity
  8
AN-NOPLOT
100
AcDbLine
 10
0.0
 20
149000.0
 30
0.0
 11
0.0
 21
151000.0
 31
0.0
  0
LWPOLYLINE
  5
14B
330
17
100
AcDbEntity
  8
AN-NOPLOT
100
AcDbPolyline
 90
4
 70
1
 10
-3000.0
 20
177000.0
 10
110000.0
 20
177000.0
 10
110000.0
 20
206000.0
 10
-3000.0
 20
206000.0
  0
TEXT
  5
14C
330
17
100
AcDbEntity
  8
AN-NOPLOT
100
AcDbText
 10
-2600.0
 20
205600.0
 30
0.0
 40
600.0
  1
ZONA DET06 — Detalles de DET-06
  7
IRAM-N
 11
-2600.0
 21
205600.0
 31
0.0
100
AcDbText
 73
3
  0
LINE
  5
14D
330
17
100
AcDbEntity
  8
AN-NOPLOT
100
AcDbLine
 10
-1000.0
 20
180000.0
 30
0.0
 11
1000.0
 21
180000.0
 31
0.0
  0
LINE
  5
14E
330
17
100
AcDbEntity
  8
AN-NOPLOT
100
AcDbLine
 10
0.0
 20
179000.0
 30
0.0
 11
0.0
 21
181000.0
 31
0.0
  0
LWPOLYLINE
  5
150
330
17
100
AcDbEntity
  8
AN-NOPLOT
100
AcDbPolyline
 90
4
 70
1
 10
-3000.0
 20
207000.0
 10
110000.0
 20
207000.0
 10
110000.0
 20
236000.0
 10
-3000.0
 20
236000.0
  0
TEXT
  5
151
330
17
100
AcDbEntity
  8
AN-NOPLOT
100
AcDbText
 10
-2600.0
 20
235600.0
 30
0.0
 40
600.0
  1
ZONA DET07 — Detalles de DET-07
  7
IRAM-N
 11
-2600.0
 21
235600.0
 31
0.0
100
AcDbText
 73
3
  0
LINE
  5
152
330
17
100
AcDbEntity
  8
AN-NOPLOT
100
AcDbLine
 10
-1000.0
 20
210000.0
 30
0.0
 11
1000.0
 21
210000.0
 31
0.0
  0
LINE
  5
153
330
17
100
AcDbEntity
  8
AN-NOPLOT
100
AcDbLine
 10
0.0
 20
209000.0
 30
0.0
 11
0.0
 21
211000.0
 31
0.0
  0
LWPOLYLINE
  5
155
330
17
100
AcDbEntity
  8
AN-NOPLOT
100
AcDbPolyline
 90
4
 70
1
 10
-3000.0
 20
237000.0
 10
110000.0
 20
237000.0
 10
110000.0
 20
266000.0
 10
-3000.0
 20
266000.0
  0
TEXT
  5
156
330
17
100
AcDbEntity
  8
AN-NOPLOT
100
AcDbText
 10
-2600.0
 20
265600.0
 30
0.0
 40
600.0
  1
ZONA DET08 — Detalles de DET-08
  7
IRAM-N
 11
-2600.0
 21
265600.0
 31
0.0
100
AcDbText
 73
3
  0
LINE
  5
157
330
17
100
AcDbEntity
  8
AN-NOPLOT
100
AcDbLine
 10
-1000.0
 20
240000.0
 30
0.0
 11
1000.0
 21
240000.0
 31
0.0
  0
LINE
  5
158
330
17
100
AcDbEntity
  8
AN-NOPLOT
100
AcDbLine
 10
0.0
 20
239000.0
 30
0.0
 11
0.0
 21
241000.0
 31
0.0
  0
LWPOLYLINE
  5
15A
330
17
100
AcDbEntity
  8
AN-NOPLOT
100
AcDbPolyline
 90
4
 70
1
 10
-3000.0
 20
267000.0
 10
110000.0
 20
267000.0
 10
110000.0
 20
296000.0
 10
-3000.0
 20
296000.0
  0
TEXT
  5
15B
330
17
100
AcDbEntity
  8
AN-NOPLOT
100
AcDbText
 10
-2600.0
 20
295600.0
 30
0.0
 40
600.0
  1
ZONA DET09 — Detalles de DET-09
  7
IRAM-N
 11
-2600.0
 21
295600.0
 31
0.0
100
AcDbText
 73
3
  0
LINE
  5
15C
330
17
100
AcDbEntity
  8
AN-NOPLOT
100
AcDbLine
 10
-1000.0
 20
270000.0
 30
0.0
 11
1000.0
 21
270000.0
 31
0.0
  0
LINE
  5
15D
330
17
100
AcDbEntity
  8
AN-NOPLOT
100
AcDbLine
 10
0.0
 20
269000.0
 30
0.0
 11
0.0
 21
271000.0
 31
0.0
  0
LWPOLYLINE
  5
15F
330
17
100
AcDbEntity
  8
AN-NOPLOT
100
AcDbPolyline
 90
4
 70
1
 10
-3000.0
 20
297000.0
 10
110000.0
 20
297000.0
 10
110000.0
 20
326000.0
 10
-3000.0
 20
326000.0
  0
TEXT
  5
160
330
17
100
AcDbEntity
  8
AN-NOPLOT
100
AcDbText
 10
-2600.0
 20
325600.0
 30
0.0
 40
600.0
  1
ZONA DET10 — Detalles de DET-10
  7
IRAM-N
 11
-2600.0
 21
325600.0
 31
0.0
100
AcDbText
 73
3
  0
LINE
  5
161
330
17
100
AcDbEntity
  8
AN-NOPLOT
100
AcDbLine
 10
-1000.0
 20
300000.0
 30
0.0
 11
1000.0
 21
300000.0
 31
0.0
  0
LINE
  5
162
330
17
100
AcDbEntity
  8
AN-NOPLOT
100
AcDbLine
 10
0.0
 20
299000.0
 30
0.0
 11
0.0
 21
301000.0
 31
0.0
  0
LWPOLYLINE
  5
164
330
17
100
AcDbEntity
  8
AN-NOPLOT
100
AcDbPolyline
 90
4
 70
1
 10
-3000.0
 20
357000.0
 10
110000.0
 20
357000.0
 10
110000.0
 20
386000.0
 10
-3000.0
 20
386000.0
  0
TEXT
  5
165
330
17
100
AcDbEntity
  8
AN-NOPLOT
100
AcDbText
 10
-2600.0
 20
385600.0
 30
0.0
 40
600.0
  1
ZONA DET12 — Detalles de DET-12
  7
IRAM-N
 11
-2600.0
 21
385600.0
 31
0.0
100
AcDbText
 73
3
  0
LINE
  5
166
330
17
100
AcDbEntity
  8
AN-NOPLOT
100
AcDbLine
 10
-1000.0
 20
360000.0
 30
0.0
 11
1000.0
 21
360000.0
 31
0.0
  0
LINE
  5
167
330
17
100
AcDbEntity
  8
AN-NOPLOT
100
AcDbLine
 10
0.0
 20
359000.0
 30
0.0
 11
0.0
 21
361000.0
 31
0.0
  0
VIEWPORT
  5
168
330
1B
100
AcDbEntity
 67
1
  8
VIEWPORTS
100
AcDbViewport
 10
210.0
 20
148.5
 30
0.0
 40
462.00000000000006
 41
326.70000000000005
 68
1
 69
1
 12
210.0
 22
148.5
 13
0.0
 23
0.0
 14
10.0
 24
10.0
 15
10.0
 25
10.0
 16
0.0
 26
0.0
 36
1.0
 17
0.0
 27
0.0
 37
0.0
 42
50.0
 43
0.0
 44
0.0
 45
326.70000000000005
 50
0.0
 51
0.0
 72
100
 90
557088
  1

281
0
 71
0
 74
0
110
0.0
120
0.0
130
0.0
111
1.0
121
0.0
131
0.0
112
0.0
122
1.0
132
0.0
 79
0
146
0.0
282
0
  0
LWPOLYLINE
  5
169
330
1B
100
AcDbEntity
 67
1
  8
G-MARCO
100
AcDbPolyline
 90
4
 70
1
 10
25.0
 20
10.0
 10
410.0
 20
10.0
 10
410.0
 20
287.0
 10
25.0
 20
287.0
  0
LINE
  5
16A
330
1B
100
AcDbEntity
 67
1
  8
G-MARCO
100
AcDbLine
 10
210.0
 20
0.0
 30
0.0
 11
210.0
 21
15.0
 31
0.0
  0
LINE
  5
16B
330
1B
100
AcDbEntity
 67
1
  8
G-MARCO
100
AcDbLine
 10
210.0
 20
297.0
 30
0.0
 11
210.0
 21
282.0
 31
0.0
  0
LINE
  5
16C
330
1B
100
AcDbEntity
 67
1
  8
G-MARCO
100
AcDbLine
 10
0.0
 20
148.5
 30
0.0
 11
30.0
 21
148.5
 31
0.0
  0
LINE
  5
16D
330
1B
100
AcDbEntity
 67
1
  8
G-MARCO
100
AcDbLine
 10
420.0
 20
148.5
 30
0.0
 11
405.0
 21
148.5
 31
0.0
  0
INSERT
  5
16E
330
1B
100
AcDbEntity
 67
1
  8
G-ROTULO
100
AcDbBlockReference
 66
1
  2
ROTULO-A3
 10
410.0
 20
10.0
 30
0.0
  0
ATTRIB
  5
170
330
1B
100
AcDbEntity
 67
1
  8
0
 62
0
100
AcDbText
 10
256.0
 20
11.5
 30
0.0
 40
7.0
  1
PL-00
  7
IRAM-N
 72
1
 11
256.0
 21
11.5
 31
0.0
100
AcDbAttribute
  2
CODIGO
 70
0
 74
1
 71
1
 72
0
 11
256.0
 21
11.5
 31
0.0
  0
ATTRIB
  5
171
330
1B
100
AcDbEntity
 67
1
  8
0
 62
0
100
AcDbText
 10
290.0
 20
11.5
 30
0.0
 40
3.5
  1
1 de 14
  7
IRAM-N
 72
1
 11
290.0
 21
11.5
 31
0.0
100
AcDbAttribute
  2
LAMINA
 70
0
 74
1
 71
1
 72
0
 11
290.0
 21
11.5
 31
0.0
  0
ATTRIB
  5
172
330
1B
100
AcDbEntity
 67
1
  8
0
 62
0
100
AcDbText
 10
311.0
 20
11.5
 30
0.0
 40
3.5
  1
E
  7
IRAM-N
 72
1
 11
311.0
 21
11.5
 31
0.0
100
AcDbAttribute
  2
REV
 70
0
 74
1
 71
1
 72
0
 11
311.0
 21
11.5
 31
0.0
  0
ATTRIB
  5
173
330
1B
100
AcDbEntity
 67
1
  8
0
 62
0
100
AcDbText
 10
320.0
 20
15.2
 30
0.0
 40
2.5
  1
m / mm
  7
IRAM-N
 11
320.0
 21
15.2
 31
0.0
100
AcDbAttribute
  2
UNIDAD
 70
0
 74
1
 71
1
 72
0
 11
320.0
 21
15.2
 31
0.0
  0
ATTRIB
  5
174
330
1B
100
AcDbEntity
 67
1
  8
0
 62
0
100
AcDbText
 10
320.0
 20
11.2
 30
0.0
 40
2.5
  1
cotas en m salvo indicación
  7
IRAM-N
 11
320.0
 21
11.2
 31
0.0
100
AcDbAttribute
  2
UNIDAD_NOTA
 70
0
 74
1
 71
1
 72
0
 11
320.0
 21
11.2
 31
0.0
  0
ATTRIB
  5
175
330
1B
100
AcDbEntity
 67
1
  8
0
 62
0
100
AcDbText
 10
236.0
 20
26.2
 30
0.0
 40
2.5
  1
—
  7
IRAM-N
 11
236.0
 21
26.2
 31
0.0
100
AcDbAttribute
  2
ESCALA
 70
0
 74
1
 71
1
 72
0
 11
236.0
 21
26.2
 31
0.0
  0
ATTRIB
  5
176
330
1B
100
AcDbEntity
 67
1
  8
0
 62
0
100
AcDbText
 10
321.0
 20
26.2
 30
0.0
 40
2.5
  1
03/10/2026
  7
IRAM-N
 11
321.0
 21
26.2
 31
0.0
100
AcDbAttribute
  2
FECHA
 70
0
 74
1
 71
1
 72
0
 11
321.0
 21
26.2
 31
0.0
  0
ATTRIB
  5
177
330
1B
100
AcDbEntity
 67
1
  8
0
 62
0
100
AcDbText
 10
351.0
 20
26.2
 30
0.0
 40
2.5
  1
--/--/----
  7
IRAM-N
 11
351.0
 21
26.2
 31
0.0
100
AcDbAttribute
  2
IMPRESION
 70
0
 74
1
 71
1
 72
0
 11
351.0
 21
26.2
 31
0.0
  0
ATTRIB
  5
178
330
1B
100
AcDbEntity
 67
1
  8
0
 62
0
100
AcDbText
 10
236.0
 20
35.7
 30
0.0
 40
2.5
  1
Gabriel Planckensteiner
  7
IRAM-N
 11
236.0
 21
35.7
 31
0.0
100
AcDbAttribute
  2
DIBUJO
 70
0
 74
1
 71
1
 72
0
 11
236.0
 21
35.7
 31
0.0
  0
ATTRIB
  5
179
330
1B
100
AcDbEntity
 67
1
  8
0
 62
0
100
AcDbText
 10
290.0
 20
35.7
 30
0.0
 40
2.5
  1
Ing. R. Bonaiuti
  7
IRAM-N
 11
290.0
 21
35.7
 31
0.0
100
AcDbAttribute
  2
VERIFICO
 70
0
 74
1
 71
1
 72
0
 11
290.0
 21
35.7
 31
0.0
  0
ATTRIB
  5
17A
330
1B
100
AcDbEntity
 67
1
  8
0
 62
0
100
AcDbText
 10
330.0
 20
35.7
 30
0.0
 40
2.5
  1
C. D. Solera (AGD)
  7
IRAM-N
 11
330.0
 21
35.7
 31
0.0
100
AcDbAttribute
  2
TUTOR
 70
0
 74
1
 71
1
 72
0
 11
330.0
 21
35.7
 31
0.0
  0
ATTRIB
  5
17B
330
1B
100
AcDbEntity
 67
1
  8
0
 62
0
100
AcDbText
 10
378.0
 20
35.7
 30
0.0
 40
2.5
  1
VJN001
  7
IRAM-N
 11
378.0
 21
35.7
 31
0.0
100
AcDbAttribute
  2
NPROYECTO
 70
0
 74
1
 71
1
 72
0
 11
378.0
 21
35.7
 31
0.0
  0
ATTRIB
  5
17C
330
1B
100
AcDbEntity
 67
1
  8
0
 62
0
100
AcDbText
 10
236.0
 20
45.2
 30
0.0
 40
2.5
  1
Fernández · Planckensteiner · Quiroga Palacio · Solera
  7
IRAM-N
 11
236.0
 21
45.2
 31
0.0
100
AcDbAttribute
  2
INTEGRANTES
 70
0
 74
1
 71
1
 72
0
 11
236.0
 21
45.2
 31
0.0
  0
ATTRIB
  5
17D
330
1B
100
AcDbEntity
 67
1
  8
0
 62
0
100
AcDbText
 10
353.0
 20
45.2
 30
0.0
 40
2.5
  1
PLANOS_AGD-2026.dwg
  7
IRAM-N
 11
353.0
 21
45.2
 31
0.0
100
AcDbAttribute
  2
ARCHIVO
 70
0
 74
1
 71
1
 72
0
 11
353.0
 21
45.2
 31
0.0
  0
ATTRIB
  5
17E
330
1B
100
AcDbEntity
 67
1
  8
0
 62
0
100
AcDbText
 10
237.0
 20
76.0
 30
0.0
 40
5.0
  1
Título de la lámina
  7
IRAM-NEGRITA
 11
237.0
 21
76.0
 31
0.0
100
AcDbAttribute
  2
TITULO
 70
0
 74
3
 71
2
 72
0
 11
237.0
 21
76.0
 31
0.0
101
Embedded Object
 10
237.0
 20
76.0
 30
0.0
 40
5.0
 41
171.0
 46
0.0
 71
1
 72
5
  1
Título de la lámina
  7
IRAM-NEGRITA
  0
ATTRIB
  5
17F
330
1B
100
AcDbEntity
 67
1
  8
0
 62
0
100
AcDbText
 10
237.0
 20
54.8
 30
0.0
 40
2.5
  1
Subtítulo de la lámina
  7
IRAM-N
 11
237.0
 21
54.8
 31
0.0
100
AcDbAttribute
  2
SUBTITULO
 70
0
 74
1
 71
2
 72
0
 11
237.0
 21
54.8
 31
0.0
101
Embedded Object
 10
237.0
 20
54.8
 30
0.0
 40
2.5
 41
171.0
 46
0.0
 71
7
 72
5
  1
Subtítulo de la lámina
  7
IRAM-N
  0
ATTRIB
  5
180
330
1B
100
AcDbEntity
 67
1
  8
0
 62
0
100
AcDbText
 10
237.0
 20
86.3
 30
0.0
 40
2.5
  1
UTN — Facultad Regional Córdoba · Ingeniería Industrial · Proyecto Final
  7
IRAM-NEGRITA
 11
237.0
 21
86.3
 31
0.0
100
AcDbAttribute
  2
ENCABEZADO
 70
0
 74
3
 71
1
 72
0
 11
237.0
 21
86.3
 31
0.0
  0
ATTRIB
  5
181
330
1B
100
AcDbEntity
 67
1
  8
0
 62
0
100
AcDbText
 10
237.0
 20
78.7
 30
0.0
 40
2.5
  1
Sistema de distribución de fertilizantes a granel — Redler — AGD Río Primero
  7
IRAM-N
 11
237.0
 21
78.7
 31
0.0
100
AcDbAttribute
  2
SISTEMA
 70
0
 74
1
 71
1
 72
0
 11
237.0
 21
78.7
 31
0.0
  0
ATTRIB
  5
182
330
1B
100
AcDbEntity
 67
1
  8
0
 62
0
100
AcDbText
 10
242.5
 20
96.5
 30
0.0
 40
2.5
  1
E
  7
IRAM-N
 72
1
 11
242.5
 21
96.5
 31
0.0
100
AcDbAttribute
  2
REV1_REV
 70
0
 74
2
 71
1
 72
0
 11
242.5
 21
96.5
 31
0.0
  0
ATTRIB
  5
183
330
1B
100
AcDbEntity
 67
1
  8
0
 62
0
100
AcDbText
 10
264.0
 20
96.5
 30
0.0
 40
2.5
  1
03/10/2026
  7
IRAM-N
 72
1
 11
264.0
 21
96.5
 31
0.0
100
AcDbAttribute
  2
REV1_FECHA
 70
0
 74
2
 71
1
 72
0
 11
264.0
 21
96.5
 31
0.0
  0
ATTRIB
  5
184
330
1B
100
AcDbEntity
 67
1
  8
0
 62
0
100
AcDbText
 10
279.0
 20
96.5
 30
0.0
 40
2.5
  1
Emisión tercera entrega
  7
IRAM-N
 11
279.0
 21
96.5
 31
0.0
100
AcDbAttribute
  2
REV1_DESCRIPCION
 70
0
 74
2
 71
1
 72
0
 11
279.0
 21
96.5
 31
0.0
  0
ATTRIB
  5
185
330
1B
100
AcDbEntity
 67
1
  8
0
 62
0
100
AcDbText
 10
366.0
 20
96.5
 30
0.0
 40
2.5
  1
G. Planckensteiner
  7
IRAM-N
 11
366.0
 21
96.5
 31
0.0
100
AcDbAttribute
  2
REV1_DIBUJO
 70
0
 74
2
 71
1
 72
0
 11
366.0
 21
96.5
 31
0.0
  0
SEQEND
  5
16F
330
16E
100
AcDbEntity
 67
1
  8
G-ROTULO
  0
ENDSEC
  0
SECTION
  2
OBJECTS
  0
DICTIONARY
  5
A
330
0
100
AcDbDictionary
281
1
  3
ACAD_COLOR
350
B
  3
ACAD_GROUP
350
C
  3
ACAD_LAYOUT
350
D
  3
ACAD_MATERIAL
350
E
  3
ACAD_MLEADERSTYLE
350
F
  3
ACAD_MLINESTYLE
350
10
  3
ACAD_PLOTSETTINGS
350
11
  3
ACAD_PLOTSTYLENAME
350
12
  3
ACAD_SCALELIST
350
14
  3
ACAD_TABLESTYLE
350
15
  3
ACAD_VISUALSTYLE
350
16
  3
EZDXF_META
350
2D
  0
DICTIONARY
  5
B
330
A
100
AcDbDictionary
281
1
  0
DICTIONARY
  5
C
330
A
100
AcDbDictionary
281
1
  0
DICTIONARY
  5
D
330
A
100
AcDbDictionary
281
1
  3
Model
350
1A
  3
PL-00
350
1E
  0
DICTIONARY
  5
E
330
A
100
AcDbDictionary
281
1
  3
ByBlock
350
1F
  3
ByLayer
350
20
  3
Global
350
21
  0
DICTIONARY
  5
F
330
A
100
AcDbDictionary
281
1
  3
Standard
350
2C
  3
IRAM-REF
350
B9
  3
IRAM-GLOBO
350
BA
  0
DICTIONARY
  5
10
330
A
100
AcDbDictionary
281
1
  3
Standard
350
22
  0
DICTIONARY
  5
11
330
A
100
AcDbDictionary
281
1
  0
ACDBDICTIONARYWDFLT
  5
12
330
A
100
AcDbDictionary
281
1
  3
Normal
350
13
100
AcDbDictionaryWithDefault
340
13
  0
ACDBPLACEHOLDER
  5
13
330
12
  0
DICTIONARY
  5
14
330
A
100
AcDbDictionary
281
1
  0
DICTIONARY
  5
15
330
A
100
AcDbDictionary
281
1
  0
DICTIONARY
  5
16
330
A
100
AcDbDictionary
281
1
  0
LAYOUT
  5
1A
330
D
100
AcDbPlotSettings
  1

  4
A3
  6

 40
7.5
 41
20.0
 42
7.5
 43
20.0
 44
420.0
 45
297.0
 46
0.0
 47
0.0
 48
0.0
 49
0.0
140
0.0
141
0.0
142
1.0
143
1.0
 70
1024
 72
1
 73
0
 74
5
  7

 75
16
 76
0
 77
2
 78
300
147
1.0
148
0.0
149
0.0
100
AcDbLayout
  1
Model
 70
1
 71
0
 10
0.0
 20
0.0
 11
420.0
 21
297.0
 12
0.0
 22
0.0
 32
0.0
 14
1e+20
 24
1e+20
 34
1e+20
 15
-1e+20
 25
-1e+20
 35
-1e+20
146
0.0
 13
0.0
 23
0.0
 33
0.0
 16
1.0
 26
0.0
 36
0.0
 17
0.0
 27
1.0
 37
0.0
 76
1
330
17
  0
LAYOUT
  5
1E
330
D
100
AcDbPlotSettings
  1

  2
DWG To PDF.pc3
  4
ISO_full_bleed_A3_(420.00_x_297.00_MM)_(420.00_x_297.00_MM)
  6

 40
0.0
 41
0.0
 42
0.0
 43
0.0
 44
420.0
 45
297.0
 46
0.0
 47
0.0
 48
0.0
 49
0.0
140
0.0
141
0.0
142
1.0
143
1.0
 70
674
 72
1
 73
0
 74
5
  7
PF-IRAM-MONO.ctb
 75
16
 76
0
 77
2
 78
300
147
1.0
148
0.0
149
0.0
100
AcDbLayout
  1
PL-00
 70
1
 71
1
 10
-0.0
 20
-0.0
 11
420.0
 21
297.0
 12
0.0
 22
0.0
 32
0.0
 14
1e+20
 24
1e+20
 34
1e+20
 15
-1e+20
 25
-1e+20
 35
-1e+20
146
0.0
 13
0.0
 23
0.0
 33
0.0
 16
1.0
 26
0.0
 36
0.0
 17
0.0
 27
1.0
 37
0.0
 76
1
330
1B
331
168
  0
MATERIAL
  5
1F
102
{ACAD_REACTORS
330
E
102
}
330
E
100
AcDbMaterial
  1
ByBlock
  2

 70
0
 40
1.0
 71
1
 41
1.0
 91
-1023410177
 42
1.0
 72
1
  3

 73
1
 74
1
 75
1
 44
0.5
 73
0
 45
1.0
 46
1.0
 77
1
  4

 78
1
 79
1
170
1
 48
1.0
171
1
  6

172
1
173
1
174
1
140
1.0
141
1.0
175
1
  7

176
1
177
1
178
1
143
1.0
179
1
  8

270
1
271
1
272
1
145
1.0
146
1.0
273
1
  9

274
1
275
1
276
1
 42
1.0
 72
1
  3

 73
1
 74
1
 75
1
 94
63
  0
MATERIAL
  5
20
102
{ACAD_REACTORS
330
E
102
}
330
E
100
AcDbMaterial
  1
ByLayer
  2

 70
0
 40
1.0
 71
1
 41
1.0
 91
-1023410177
 42
1.0
 72
1
  3

 73
1
 74
1
 75
1
 44
0.5
 73
0
 45
1.0
 46
1.0
 77
1
  4

 78
1
 79
1
170
1
 48
1.0
171
1
  6

172
1
173
1
174
1
140
1.0
141
1.0
175
1
  7

176
1
177
1
178
1
143
1.0
179
1
  8

270
1
271
1
272
1
145
1.0
146
1.0
273
1
  9

274
1
275
1
276
1
 42
1.0
 72
1
  3

 73
1
 74
1
 75
1
 94
63
  0
MATERIAL
  5
21
102
{ACAD_REACTORS
330
E
102
}
330
E
100
AcDbMaterial
  1
Global
  2

 70
0
 40
1.0
 71
1
 41
1.0
 91
-1023410177
 42
1.0
 72
1
  3

 73
1
 74
1
 75
1
 44
0.5
 73
0
 45
1.0
 46
1.0
 77
1
  4

 78
1
 79
1
170
1
 48
1.0
171
1
  6

172
1
173
1
174
1
140
1.0
141
1.0
175
1
  7

176
1
177
1
178
1
143
1.0
179
1
  8

270
1
271
1
272
1
145
1.0
146
1.0
273
1
  9

274
1
275
1
276
1
 42
1.0
 72
1
  3

 73
1
 74
1
 75
1
 94
63
  0
MLINESTYLE
  5
22
102
{ACAD_REACTORS
330
10
102
}
330
10
100
AcDbMlineStyle
  2
Standard
 70
0
  3

 62
256
 51
90.0
 52
90.0
 71
2
 49
0.5
 62
256
  6
BYLAYER
 49
-0.5
 62
256
  6
BYLAYER
  0
MLEADERSTYLE
  5
2C
102
{ACAD_REACTORS
330
F
102
}
330
F
100
AcDbMLeaderStyle
179
2
170
2
171
1
172
0
 90
2
 40
0.0
 41
0.0
173
1
 91
-1056964608
 92
-2
290
1
 42
2.0
291
1
 43
8.0
  3
Standard
 44
4.0
300

342
29
174
1
175
1
176
0
178
1
 93
-1056964608
 45
4.0
292
0
297
0
 46
4.0
 94
-1056964608
 47
1.0
 49
1.0
140
1.0
294
1
141
0.0
177
0
142
1.0
295
0
296
0
143
3.75
271
0
272
9
273
9
  0
DICTIONARY
  5
2D
330
A
100
AcDbDictionary
280
1
281
1
  3
CREATED_BY_EZDXF
350
2E
  3
WRITTEN_BY_EZDXF
350
188
  0
DICTIONARYVAR
  5
2E
330
2D
100
DictionaryVariables
280
0
  1
1.4.4 @ 2026-10-04T06:39:16.370544+00:00
  0
MLEADERSTYLE
  5
B9
102
{ACAD_REACTORS
330
F
102
}
330
F
100
AcDbMLeaderStyle
179
2
170
2
171
1
172
0
 90
2
 40
0.0
 41
0.0
173
1
 91
-1073741824
 92
-1
290
1
 42
1.0
291
1
 43
3.0
  3
IRAM-REF
341
65
 44
1.0
300

342
5E
174
1
175
1
176
0
178
1
 93
-1073741824
 45
2.5
292
0
297
0
 46
4.0
 94
-1056964608
 47
1.0
 49
1.0
140
1.0
294
1
141
0.0
177
0
142
1.0
295
0
296
1
143
3.75
271
0
272
9
273
9
  0
MLEADERSTYLE
  5
BA
102
{ACAD_REACTORS
330
F
102
}
330
F
100
AcDbMLeaderStyle
179
2
170
1
171
1
172
0
 90
2
 40
0.0
 41
0.0
173
1
 91
-1073741824
 92
-1
290
1
 42
1.0
291
0
 43
0.0
  3
IRAM-GLOBO
341
65
 44
1.0
300

342
5E
174
1
175
1
176
0
178
1
 93
-1073741824
 45
2.5
292
0
297
0
 46
4.0
343
71
 94
-1056964608
 47
1.0
 49
1.0
140
1.0
294
1
141
0.0
177
1
142
1.0
295
0
296
1
143
3.75
271
0
272
9
273
9
  0
DICTIONARYVAR
  5
188
330
2D
100
DictionaryVariables
280
0
  1
1.4.4 @ 2026-10-04T06:39:16.395848+00:00
  0
ENDSEC
  0
EOF
